<ttFont>
          <CharString index="0">
            76 callgsubr
            158 108 126 214 213 -108 121 -158 -158 -108 -120 -214 -214 108 -126 158 hvcurveto
            148 vmoveto
            -56 -34 74 118 118 34 68 56 56 34 -68 -118 -118 -34 -74 -56 hvcurveto
            return
          </CharString>
          <CharString index="1">
            rmoveto
            10 45 14 62 17 78 14 66 rlinecurve
            4 hlineto
            16 -65 17 -79 14 -62 10 -45 rcurveline
            63 -271 rmoveto
            182 hlineto
            -196 650 rlineto
            -208 hlineto
            -196 -650 rlineto
            176 hlineto
            32 138 rlineto
            178 hlineto
            endchar
          </CharString>
          <CharString index="2">
            50 250 rmoveto
            -166 122 -96 158 62 78 20 38 60 vhcurveto
            -56 102 rlineto
            -20 -44 -36 -10 -40 hhcurveto
            -61 -55 18 62 -12 hvcurveto
            317 hlineto
            2 12 5 30 30 vvcurveto
            134 -80 108 -158 -134 -128 -98 -164 vhcurveto
            174 60 rmoveto
            52 12 37 20 43 hhcurveto
            58 20 -32 -40 hvcurveto
            return
          </CharString>
          <CharString index="3">
            -36 -26 -20 -8 -29 hhcurveto
            -45 -12 24 56 hvcurveto
            286 -172 -308 vlineto
            -124 46 -80 112 70 50 30 48 42 vhcurveto
            4 hlineto
            return
          </CharString>
          <CharString index="4">
            -6 23 26 -4 31 hhcurveto
            131 59 61 135 53 hvcurveto
            188 492 rlineto
            -162 hlineto
            -60 -192 -15 -50 -16 -51 -12 -51 rlinecurve
            -4 hlineto
            -14 54 -14 50 -17 48 -70 192 rcurveline
            -170 hlineto
            210 -482 -8 -22 rlineto
            -30 -13 -27 -20 -53 hhcurveto
            -11 -12 2 4 -13 hvcurveto
            return
          </CharString>
          <CharString index="5">
            44 81 rmoveto
            -63 73 94 -30 85 hhcurveto
            168 92 98 110 90 -50 56 -87 32 hvcurveto
            -75 31 rlineto
            -65 24 -37 10 31 vvcurveto
            29 26 15 48 52 37 -16 -31 47 vhcurveto
            86 108 rlineto
            59 -63 -82 28 -77 hhcurveto
            -148 -100 -91 -111 -94 62 -59 75 -28 hvcurveto
            81 -34 rlineto
            61 -22 33 -10 -31 vvcurveto
            -29 -21 -17 -59 -51 -58 26 37 -49 vhcurveto
            return
          </CharString>
          <CharString index="6">
            40 320 rmoveto
            -222 138 -110 167 83 79 40 40 45 vhcurveto
            310 -234 -140 81 -90 vlineto
            -8 -10 -18 -4 -16 hhcurveto
            -93 -45 68 122 118 58 70 71 47 26 -16 -26 27 hvcurveto
            94 106 rlineto
            44 -43 -63 40 -88 hhcurveto
            -169 -137 -122 -220 hvcurveto
            return
          </CharString>
          <CharString index="7">
            -23 callsubr
            140 150 -82 163 hintmask 1111011000100000
            -98 callgsubr
            hintmask 1111010011000000
            -85 hlineto
            -56 -22 8 22 14 4 6 12 9 hvcurveto
            -5 24 21 -2 18 hhcurveto
            119 92 48 118 20 -7 20 -7 12 hvcurveto
            90 124 -202 hlineto
            hintmask 1110110101000000
            8 -25 -30 4 -30 hhcurveto
            -116 -105 -58 -124 -58 30 -46 38 -24 hvcurveto
            -4 vlineto
            hintmask 1111010011000000
            -35 -24 -25 -36 -34 vvcurveto
            -42 22 -26 28 -18 vhcurveto
            -4 vlineto
            hintmask 1111011000100000
            -50 -24 -26 -31 -41 vvcurveto
            hintmask 1110110101000000
            239 342 rmoveto
            -33 -27 22 48 46 27 22 33 33 28 -22 -46 -48 -28 -22 -33 hvcurveto
            return
          </CharString>
          <CharString index="8">
            rmoveto
            -32 -60 rlineto
            30 -8 10 -10 -16 vvcurveto
            -22 -34 -8 -46 -4 vhcurveto
            12 -66 rlineto
            102 4 88 32 72 vvcurveto
            52 -32 26 -98 8 vhcurveto
            endchar
          </CharString>
          <CharString index="9">
            214 hmoveto
            172 215 hlineto
            206 435 154 callsubr
            -54 -142 -18 -50 -19 -46 -18 -52 rlinecurve
            -4 hlineto
            -18 52 -18 46 -17 50 -54 142 rcurveline
            -184 hlineto
            206 -435 rlineto
            return
          </CharString>
          <CharString index="10">
            40 28 30 38 38 -28 30 -40 -40 -28 -30 -38 -38 28 -30 40 hvcurveto
            return
          </CharString>
          <CharString index="11">
            vstem
            74 hmoveto
            194 hlineto
            16 134 8 73 3 41 3 34 rlinecurve
            4 hlineto
            5 -55 5 -47 6 -46 16 -134 rcurveline
            198 hlineto
            66 500 rlineto
            -156 hlineto
            -19 -210 -6 -50 0 -50 -6 -52 rlinecurve
            -4 hlineto
            -7 52 -7 50 -9 50 -22 130 rcurveline
            -116 hlineto
            -20 -130 -10 -48 -6 -52 -5 -52 rlinecurve
            -3 hlineto
            -6 52 -1 50 -6 50 -19 210 rcurveline
            -168 hlineto
            return
          </CharString>
          <CharString index="12">
            rmoveto
            124 hlineto
            48 94 76 callsubr
            -94 rlineto
            124 hlineto
            -102 174 51 callsubr
            return
          </CharString>
          <CharString index="13">
            vstem
            83 hmoveto
            174 hlineto
            27 178 7 42 5 46 3 39 rlinecurve
            3 hlineto
            1 -39 7 -46 7 -42 29 -178 rcurveline
            178 hlineto
            75 650 rlineto
            -164 hlineto
            -8 -322 rlineto
            -54 0 -56 -58 vvcurveto
            -4 hlineto
            -9 58 -14 57 -9 53 -33 158 rcurveline
            -100 hlineto
            -36 -158 -10 -55 -14 -57 -8 -56 rlinecurve
            -4 hlineto
            56 0 56 56 vvcurveto
            -8 322 rlineto
            -176 hlineto
            return
          </CharString>
          <CharString index="14">
            rmoveto
            -35 52 48 -2 40 hhcurveto
            74 64 44 58 36 -16 26 -49 14 hvcurveto
            41 14 12 20 36 vvcurveto
            53 -56 37 -67 -58 -49 -17 -23 -32 vhcurveto
            47 -72 rlineto
            10 20 21 12 22 hhcurveto
            20 12 -8 -12 -22 -21 -3 -31 hvcurveto
            -62 vlineto
            return
          </CharString>
          <CharString index="15">
            rmoveto
            144 hlineto
            102 174 rlineto
            -124 hlineto
            -48 -94 rlineto
            -4 hlineto
            -48 94 rlineto
            -124 hlineto
            endchar
          </CharString>
          <CharString index="16">
            162 212 rmoveto
            -134 60 -90 164 68 54 14 12 44 vhcurveto
            -30 -15 callsubr
            -9 -27 -30 -7 -34 hhcurveto
            -64 -33 22 71 hvcurveto
            151 198 134 -198 130 -142 vlineto
            -22 -130 -128 -6 rlineto
            -128 120 vlineto
            return
          </CharString>
          <CharString index="17">
            rmoveto
            160 198 -58 54 -188 -168 rlineto
            490 514 rmoveto
            -160 -198 58 -54 188 168 rlineto
            return
          </CharString>
          <CharString index="18">
            4 hlineto
            48 -58 95 callgsubr
            -96 -15 callsubr
            -168 hlineto
            -96 -124 rlineto
            return
          </CharString>
          <CharString index="19">
            136 -356 hlineto
            -130 68 -88 133 65 36 10 16 54 vhcurveto
            -37 126 rlineto
            -10 -29 -22 -4 -21 hhcurveto
            -35 -40 16 58 hvcurveto
            496 -308 vlineto
            return
          </CharString>
          <CharString index="20">
            vstem
            51 320 rmoveto
            -222 146 -110 170 80 73 32 64 55 vhcurveto
            -94 104 rlineto
            -30 -28 -34 -22 -42 hhcurveto
            -88 -62 68 122 118 62 70 80 44 30 -16 -26 30 hvcurveto
            94 106 rlineto
            44 -46 -68 40 -84 hhcurveto
            -176 -142 -124 -218 hvcurveto
            return
          </CharString>
          <CharString index="21">
            328 vlineto
            24 26 22 14 32 hhcurveto
            44 14 -24 -56 hvcurveto
            -286 34 callsubr
            124 -48 80 -111 -73 -54 -34 -38 -40 vhcurveto
            -4 hlineto
            return
          </CharString>
          <CharString index="22">
            rmoveto
            -46 callsubr
            -52 callsubr
            208 -4 callgsubr
            -52 callsubr
            endchar
          </CharString>
          <CharString index="23">
            rmoveto
            96 46 66 78 2 hvcurveto
            -74 hlineto
            -36 -6 -21 -26 -43 hhcurveto
            -43 -21 26 36 -6 hvcurveto
            -74 19 callgsubr
            return
          </CharString>
          <CharString index="24">
            -14 -50 rlineto
            -4 hlineto
            44 -38 -44 18 -48 hhcurveto
            return
          </CharString>
          <CharString index="25">
            rmoveto
            -12 -17 6 28 -7 hvcurveto
            8 10 12 5 12 hhcurveto
            17 12 -7 -16 -16 -10 -8 -17 hvcurveto
            134 204 rmoveto
            27 -31 -39 17 -45 hhcurveto
            -114 -54 -85 -80 -100 54 -73 101 74 55 51 64 63 -41 30 -58 -31 -24 -9 -16 -18 hvcurveto
            35 4 15 30 47 hhcurveto
            23 18 -8 -14 17 hvcurveto
            endchar
          </CharString>
          <CharString index="26">
            rmoveto
            16 10 8 17 12 17 -6 -28 7 vhcurveto
            -8 -10 -12 -5 -12 hhcurveto
            -17 -12 7 16 hvcurveto
            -107 -180 rmoveto
            -27 31 39 -17 45 hhcurveto
            114 54 85 80 100 -54 73 -101 -74 -55 -51 -64 -63 41 -30 58 31 24 9 16 18 hvcurveto
            -35 -4 -15 -30 -47 hhcurveto
            -23 -18 8 14 -17 hvcurveto
            endchar
          </CharString>
          <CharString index="27">
            160 602 rmoveto
            7 -11 9 -17 -20 vvcurveto
            -39 -22 -12 -30 -7 vhcurveto
            20 -36 -42 10 -46 hhcurveto
            -158 -108 -120 -214 -214 108 -126 158 hvcurveto
            return
          </CharString>
          <CharString index="28">
            rmoveto
            -56 -34 74 118 118 34 68 56 56 34 -68 -118 -118 -34 -74 -56 hvcurveto
            hintmask 11110100
            -80 callsubr
            hintmask 11111000
            -11 callgsubr
            hintmask 11110100
            66 17 48 40 72 -62 callgsubr
          </CharString>
          <CharString index="29">
            12 -46 rlineto
            140 500 -134 hlineto
            return
          </CharString>
          <CharString index="30">
            -31 callgsubr
            hintmask 11110100
            -78 callgsubr
            hintmask 11111000
            132 126 96 166 78 -28 62 -43 45 hvcurveto
            hintmask 11110100
            63 17 46 40 70 -62 callgsubr
          </CharString>
          <CharString index="31">
            -87 callgsubr
            endchar
          </CharString>
          <CharString index="32">
            140 320 return
          </CharString>
          <CharString index="33">
            40 110 rmoveto
            -22 8 -10 7 14 vvcurveto
            11 10 7 11 13 10 -9 -14 -8 -4 -10 -8 -6 vhcurveto
            return
          </CharString>
          <CharString index="34">
            rmoveto
            58 hlineto
            68 36 -18 -56 -56 -36 -30 -68 hvcurveto
            -58 hlineto
            -136 vmoveto
            62 hlineto
            112 -218 rlineto
            192 hlineto
            -141 252 rlineto
            63 34 42 61 93 vvcurveto
            162 -120 48 -140 vhcurveto
            -242 -650 172 hlineto
            return
          </CharString>
          <CharString index="35">
            -56 callgsubr
            84 136 44 114 63 callsubr
            -104 50 callgsubr
            -108 -69 callsubr
            return
          </CharString>
          <CharString index="36">
            -76 hlineto
            32 31 34 42 43 vvcurveto
            68 -54 42 -82 -56 -43 -26 -40 -40 vhcurveto
            70 -64 rlineto
            21 16 18 11 15 hhcurveto
            25 13 -14 -21 hvcurveto
            return
          </CharString>
          <CharString index="37">
            12 11 -21 hvcurveto
            15 -395 -90 callsubr
            hintmask 1000000100100000
            -192 -450 rmoveto
            12 8 13 10 6 vhcurveto
            26 -7 16 -12 -15 vvcurveto
            -12 -12 -10 -18 -17 -13 9 16 vhcurveto
            hintmask 0100000011000000
            -74 callsubr
            hintmask 1000000100100000
            -148 -120 rmoveto
            -51 57 -41 81 82 56 43 49 49 -26 19 -35 18 vhcurveto
            4 vlineto
            hintmask 0100000011000000
            32 14 21 16 33 vvcurveto
            57 -57 36 -73 -71 -59 -36 -57 -41 22 -12 30 -20 vhcurveto
            -4 vlineto
            hintmask 1000000100100000
            -29 -16 -31 -18 -42 vvcurveto
            endchar
          </CharString>
          <CharString index="38">
            172 hintmask 0111110010000000
            -45 callgsubr
            hintmask 1011110010000000
            -322 vlineto
            -104 callsubr
            return
          </CharString>
          <CharString index="39">
            rmoveto
            -97 callsubr
            208 hmoveto
            -97 callsubr
            return
          </CharString>
          <CharString index="40">
            rmoveto
            -180 hlineto
            -78 -124 rlineto
            136 hlineto
            return
          </CharString>
          <CharString index="41">
            hstem
            143 114 110 101 vstem
            143 425 rmoveto
            -110 79 -63 103 39 52 13 26 39 vhcurveto
            -39 69 rlineto
            -13 -27 -23 -6 -24 hhcurveto
            -39 -33 11 40 -12 hvcurveto
            205 hlineto
            2 8 3 18 20 vvcurveto
            88 -50 73 -105 -86 -84 -67 -107 vhcurveto
            114 38 rmoveto
            35 7 24 12 28 hhcurveto
            39 12 -22 -25 hvcurveto
            return
          </CharString>
          <CharString index="42">
            70 8 56 20 70 vvcurveto
            46 -36 32 -122 4 vhcurveto
            -16 -70 rlineto
            51 -4 13 -10 -16 vvcurveto
            return
          </CharString>
          <CharString index="43">
            -21 372 -58 callsubr
            return
          </CharString>
          <CharString index="44">
            -12 118 422 118 hstemhm
            58 148 -126 150 146 140 -132 160 hintmask 11100100
            206 182 rmoveto
            32 17 32 26 22 vhcurveto
            83 -32 52 -18 -46 vvcurveto
            -48 -36 -18 -46 -52 -44 26 50 vhcurveto
            hintmask 11011000
            134 196 rmoveto
            -67 24 -43 22 42 vvcurveto
            44 32 18 38 48 28 -26 -44 -28 -12 -26 -24 -26 vhcurveto
            hintmask 11100100
            -282 -216 rmoveto
            -104 92 -70 148 158 88 76 102 84 -51 50 -66 33 vhcurveto
            4 vlineto
            hintmask 11011000
            48 29 41 46 58 vvcurveto
            108 -85 68 -127 -131 -93 -68 -112 -66 38 -46 53 -38 vhcurveto
            -4 vlineto
            hintmask 11100100
            -64 -32 -49 -44 -74 vvcurveto
            endchar
          </CharString>
          <CharString index="45">
            rmoveto
            56 40 36 50 50 -40 36 -56 -56 -40 -36 -50 -50 40 -36 56 hvcurveto
            endchar
          </CharString>
          <CharString index="46">
            148 378 148 return
          </CharString>
          <CharString index="47">
            -47 callsubr
            hstemhm
            42 174 148 172 hintmask 11001110
            -71 callgsubr
            hintmask 11010110
            470 -134 vlineto
            hintmask 11001110
            -14 -50 rlineto
            -4 hlineto
            42 -36 -44 20 -50 hhcurveto
            -112 -100 -100 -152 -140 84 -104 124 42 51 16 28 31 hvcurveto
            -4 -50 rlineto
            -35 -6 -32 -29 -66 hhcurveto
            -38 -54 10 24 -46 hvcurveto
            168 174 rmoveto
            -46 -34 37 71 hvcurveto
            hintmask 11100110
            75 42 35 38 26 22 -6 -18 20 vhcurveto
            -156 vlineto
            hintmask 11001110
            -30 -20 -22 -8 -26 hhcurveto
            endchar
          </CharString>
          <CharString index="48">
            64 hmoveto
            172 328 hlineto
            24 26 22 14 32 hhcurveto
            44 14 -24 -56 hvcurveto
            -286 34 callsubr
            124 -48 80 -110 -74 -54 -34 -32 -33 vhcurveto
            9 88 rlineto
            162 -172 vlineto
            return
          </CharString>
          <CharString index="49">
            140 -17 callsubr
            return
          </CharString>
          <CharString index="50">
            160 -56 callsubr
            return
          </CharString>
          <CharString index="51">
            hstem
            26 callgsubr
            vstem
            return
          </CharString>
          <CharString index="52">
            58 hmoveto
            193 hlineto
            176 131 98 230 230 -131 92 -186 hvcurveto
            -183 hlineto
            172 -512 rmoveto
            374 2 vlineto
            83 67 -32 -152 -152 -67 -38 -83 hvcurveto
            return
          </CharString>
          <CharString index="53">
            160 -74 callgsubr
            return
          </CharString>
          <CharString index="54">
            -110 -102 27 callsubr
            return
          </CharString>
          <CharString index="55">
            -46 -32 -34 -44 -44 32 -34 46 hvcurveto
            return
          </CharString>
          <CharString index="56">
            rmoveto
            7 -11 9 -17 -20 vvcurveto
            -54 -46 -6 -34 vhcurveto
            return
          </CharString>
          <CharString index="57">
            -24 -6 -14 -16 -30 hhcurveto
            -30 -14 16 24 -6 hvcurveto
            -92 -22 callgsubr
            return
          </CharString>
          <CharString index="58">
            rmoveto
            25 54 30 61 rlineto
            3 hlineto
            -6 -106 rlineto
            -9 vlineto
            160 hmoveto
            -52 183 -158 hlineto
            -109 -199 rlineto
            -59 159 -56 108 56 52 vlineto
            endchar
          </CharString>
          <CharString index="59">
            hstemhm
            -30 callgsubr
            return
          </CharString>
          <CharString index="60">
            114 callgsubr
            70 138 218 -58 callsubr
            return
          </CharString>
          <CharString index="61">
            46 32 34 44 44 -32 34 -46 return
          </CharString>
          <CharString index="62">
            rmoveto
            124 hlineto
            -88 174 rlineto
            -174 hlineto
            endchar
          </CharString>
          <CharString index="63">
            70 hmoveto
            475 134 -239 hlineto
            232 274 rlineto
            92 -439 -134 202 vlineto
            -231 -274 rlineto
            return
          </CharString>
          <CharString index="64">
            71 4 53 24 62 vvcurveto
            44 -34 36 -122 4 vhcurveto
            -16 -68 rlineto
            51 -4 13 -10 -16 vvcurveto
            return
          </CharString>
          <CharString index="65">
            60 160 160 -57 callsubr
            return
          </CharString>
          <CharString index="66">
            rmoveto
            108 -40 76 -68 78 vhcurveto
            -92 -54 rlineto
            52 -64 30 -72 -72 vvcurveto
            -72 -30 -72 -52 -64 vhcurveto
            92 -54 rlineto
            68 78 40 76 108 vvcurveto
            endchar
          </CharString>
          <CharString index="67">
            -264 202 return
          </CharString>
          <CharString index="68">
            -224 66 118 44 hstem
            270 122 vstem
            214 -76 rmoveto
            -81 callgsubr
            18 44 rlineto
            -98 hlineto
            endchar
          </CharString>
          <CharString index="69">
            -206 106 76 130 52 102 116 124 -102 114 return
          </CharString>
          <CharString index="70">
            126 callsubr
            -400 rmoveto
            160 return
          </CharString>
          <CharString index="71">
            0 138 156 77 -77 80 138 138 80 callgsubr
            152 176 hintmask 10111100
            64 hmoveto
            194 hlineto
            174 132 98 230 230 -132 92 -184 hvcurveto
            -184 hlineto
            hintmask 11011100
            -276 vlineto
            -68 -6 rlineto
            -74 68 vlineto
            172 -156 rmoveto
            hintmask 10111100
            156 94 80 -94 138 2 vlineto
            82 68 -32 -152 hvcurveto
            hintmask 11011100
            -152 -68 -38 -82 vhcurveto
            endchar
          </CharString>
          <CharString index="72">
            129 hlineto
            hintmask 11000000
            5 105 14 63 73 83 rrcurveto
            63 -272 -100 vlineto
            hintmask 10100000
            137 hlineto
            -53 -77 -28 -52 -5 -85 rrcurveto
            endchar
          </CharString>
          <CharString index="73">
            -43 callgsubr
            -2 41 callgsubr
            return
          </CharString>
          <CharString index="74">
            -24 callgsubr
            101 callgsubr
            return
          </CharString>
          <CharString index="75">
            74 366 rmoveto
            190 -326 hlineto
            -68 -20 -26 -61 -26 -29 4 18 -42 vhcurveto
            -49 -122 rlineto
            -20 44 49 -14 65 hhcurveto
            189 52 112 122 hvcurveto
            454 -362 vlineto
            return
          </CharString>
          <CharString index="76">
            -12 148 514 -20 return
          </CharString>
          <CharString index="77">
            -21 callsubr
            146 172 return
          </CharString>
          <CharString index="78">
            -55 callgsubr
            62 return
          </CharString>
          <CharString index="79">
            rmoveto
            -97 callsubr
            -208 14 callsubr
          </CharString>
          <CharString index="80">
            12 -46 rlineto
            140 696 -172 -162 hlineto
            6 -72 rlineto
            30 -31 -33 20 -55 hhcurveto
            -105 -104 27 callsubr
            return
          </CharString>
          <CharString index="81">
            17 callsubr
            323 -89 17 callsubr
            endchar
          </CharString>
          <CharString index="82">
            45 19 -10 -19 -14 -16 -8 -18 -25 -33 12 11 -21 hvcurveto
            return
          </CharString>
          <CharString index="83">
            rmoveto
            74 58 53 79 79 -58 47 -74 -74 -58 -47 -79 -79 58 -53 74 hvcurveto
            70 vmoveto
            -18 -18 14 48 48 18 8 18 18 18 -7 -49 -48 -18 -14 -18 hvcurveto
            return
          </CharString>
          <CharString index="84">
            hstemhm
            44 139 -121 161 -153 134 return
          </CharString>
          <CharString index="85">
            60 160 160 22 callgsubr
            380 rmoveto
            300 -160 -300 -160 return
          </CharString>
          <CharString index="86">
            hstemhm
            42 176 return
          </CharString>
          <CharString index="87">
            63 callsubr
            132 172 return
          </CharString>
          <CharString index="88">
            12 -66 rlineto
            140 return
          </CharString>
          <CharString index="89">
            214 hmoveto
            172 506 187 144 -546 -144 187 hlineto
            return
          </CharString>
          <CharString index="90">
            -12 -20 32 -20 return
          </CharString>
          <CharString index="91">
            48 -32 rlineto
            9 17 12 4 18 hhcurveto
            18 16 -8 -20 -18 -16 -8 -19 -25 -32 12 11 -21 hvcurveto
            return
          </CharString>
          <CharString index="92">
            124 rlineto
            return
          </CharString>
          <CharString index="93">
            252 94 158 95 hstem
            129 122 98 122 vstem
            129 425 rmoveto
            -109 82 -64 89 89 82 64 109 110 -82 64 -89 -89 -82 -64 -110 vhcurveto
            122 hmoveto
            49 12 30 37 38 11 -30 -49 -48 -11 -31 -38 -37 -12 31 48 vhcurveto
            endchar
          </CharString>
          <CharString index="94">
            rmoveto
            136 hlineto
            -78 124 154 callsubr
            endchar
          </CharString>
          <CharString index="95">
            -72 52 -58 78 78 52 58 72 71 -52 59 -78 -78 -52 -59 -71 vhcurveto
            return
          </CharString>
          <CharString index="96">
            98 callgsubr
            -80 140 rmoveto
            return
          </CharString>
          <CharString index="97">
            84 37 61 30 57 hhcurveto
            36 21 -5 -9 30 hvcurveto
            return
          </CharString>
          <CharString index="98">
            rmoveto
            -208 134 -126 152 152 134 126 208 208 -134 122 -152 -152 -134 -122 -208 vhcurveto
            72 hmoveto
            160 86 102 128 128 86 -102 -160 -160 -86 -106 -128 -128 -86 106 160 vhcurveto
            return
          </CharString>
          <CharString index="99">
            26 30 -36 54 hhcurveto
            44 42 34 88 10 hvcurveto
            -72 hlineto
            -26 -6 -12 -10 -16 -26 -30 36 -54 hhcurveto
            -44 -42 -34 -88 -10 hvcurveto
            endchar
          </CharString>
          <CharString index="100">
            6 callgsubr
            -400 rmoveto
            320 return
          </CharString>
          <CharString index="101">
            rmoveto
            -40 30 -30 40 40 30 30 40 40 -30 32 -40 -40 -30 -32 -40 vhcurveto
            endchar
          </CharString>
          <CharString index="102">
            4 callsubr
            hintmask 10100000
            101 callgsubr
            return
          </CharString>
          <CharString index="103">
            574 174 hstem
            212 262 vstem
            12 callsubr
            endchar
          </CharString>
          <CharString index="104">
            574 174 hstem
            126 262 vstem
            264 14 callgsubr
          </CharString>
          <CharString index="105">
            90 51 62 45 90 hstemhm
            256 172 -108 120 hintmask 11110000
            162 return
          </CharString>
          <CharString index="106">
            470 -134 vlineto
            hintmask 11001111
            -14 -50 rlineto
            -4 hlineto
            42 -36 -44 20 -50 hhcurveto
            -112 -100 -100 -152 -140 84 -104 124 42 51 16 28 31 hvcurveto
            -4 -50 rlineto
            -35 -6 -32 -29 -66 hhcurveto
            return
          </CharString>
          <CharString index="107">
            5 callsubr
            -38 86 rlineto
            -6 -9 -13 -8 106 callgsubr
            return
          </CharString>
          <CharString index="108">
            -12 -49 callgsubr
            62 return
          </CharString>
          <CharString index="109">
            rmoveto
            127 56 60 86 112 vvcurveto
            return
          </CharString>
          <CharString index="110">
            hstem
            353 172 vstem
            51 95 rmoveto
            -81 61 88 -26 72 hhcurveto
            187 66 108 130 hvcurveto
            424 -419 -144 247 -266 vlineto
            -82 -31 -22 -56 -40 -41 24 42 -37 vhcurveto
            return
          </CharString>
          <CharString index="111">
            220 86 callsubr
            return
          </CharString>
          <CharString index="112">
            vvcurveto
            -62 54 -36 68 38 48 16 22 28 vhcurveto
            return
          </CharString>
          <CharString index="113">
            90 47 71 40 90 hstem
            156 112 64 108 vstem
            305 return
          </CharString>
          <CharString index="114">
            153 callsubr
            122 hlineto
            58 64 110 -186 rlineto
            186 hlineto
            -197 292 185 208 rlineto
            -186 hlineto
            -152 -178 rlineto
            -4 374 -172 hlineto
            return
          </CharString>
          <CharString index="115">
            -208 hlineto
            -196 -650 rlineto
            176 hlineto
            32 138 rlineto
            178 hlineto
            32 -138 rlineto
            return
          </CharString>
          <CharString index="116">
            270 120 hstem
            64 472 vstem
            64 270 rmoveto
            42 callgsubr
            endchar
          </CharString>
          <CharString index="117">
            270 18 callgsubr
            return
          </CharString>
          <CharString index="118">
            rmoveto
            72 64 -128 174 128 174 -72 64 -178 -152 rlineto
            -172 vlineto
            return
          </CharString>
          <CharString index="119">
            474 5 callgsubr
            return
          </CharString>
          <CharString index="120">
            -36 hhcurveto
            -70 -70 -65 -109 hvcurveto
            122 2 rmoveto
            57 23 19 24 15 17 -4 -11 13 vhcurveto
            -118 vlineto
            -18 -12 -13 -4 -18 hhcurveto
            -30 -19 21 58 hvcurveto
            endchar
          </CharString>
          <CharString index="121">
            hmoveto
            -97 callsubr
            endchar
          </CharString>
          <CharString index="122">
            -162 82 -100 127 45 49 24 34 35 vhcurveto
            4 hlineto
            return
          </CharString>
          <CharString index="123">
            34 callgsubr
            0 return
          </CharString>
          <CharString index="124">
            2 callsubr
            -67 callgsubr
            return
          </CharString>
          <CharString index="125">
            -21 366 146 -12 -20 return
          </CharString>
          <CharString index="126">
            60 160 160 160 -37 callsubr
            460 156 callgsubr
            -300 160 156 callgsubr
            return
          </CharString>
          <CharString index="127">
            274 324 -87 callgsubr
            return
          </CharString>
          <CharString index="128">
            824 -67 callsubr
            return
          </CharString>
          <CharString index="129">
            -16 -10 -5 -16 -3 vhcurveto
            endchar
          </CharString>
          <CharString index="130">
            140 -107 -21 372 140 0 -20 204 -20 -21 callsubr
            return
          </CharString>
          <CharString index="131">
            rmoveto
            104 hlineto
            38 242 6 158 rlineto
            -192 hlineto
            6 -158 rlineto
            return
          </CharString>
          <CharString index="132">
            0 160 145 181 164 -20 return
          </CharString>
          <CharString index="133">
            42 176 164 176 return
          </CharString>
          <CharString index="134">
            -98 -164 hvcurveto
            return
          </CharString>
          <CharString index="135">
            75 115 68 hstem
            316 108 vstem
            264 return
          </CharString>
          <CharString index="136">
            155 96 hstem
            125 122 92 119 vstem
            return
          </CharString>
          <CharString index="137">
            -19 callsubr
            hlineto
            return
          </CharString>
          <CharString index="138">
            rmoveto
            -101 callgsubr
            return
          </CharString>
          <CharString index="139">
            564 136 44 114 hstem
            128 50 callgsubr
            vstem
            return
          </CharString>
          <CharString index="140">
            21 66 callsubr
            return
          </CharString>
          <CharString index="141">
            172 308 vlineto
            return
          </CharString>
          <CharString index="142">
            -34 76 rlineto
            -6 -11 -11 -6 -11 hhcurveto
            -22 -19 11 23 28 16 34 58 16 hvcurveto
            500 -362 -134 190 vlineto
            return
          </CharString>
          <CharString index="143">
            rmoveto
            296 108 -296 hlineto
            return
          </CharString>
          <CharString index="144">
            474 21 callsubr
            return
          </CharString>
          <CharString index="145">
            300 129 callsubr
            -460 -140 hlineto
            return
          </CharString>
          <CharString index="146">
            28 152 2 74 rlineto
            -108 hlineto
            return
          </CharString>
          <CharString index="147">
            -34 76 rlineto
            -6 -8 -14 -6 -12 hhcurveto
            return
          </CharString>
          <CharString index="148">
            104 hmoveto
            172 248 hlineto
            return
          </CharString>
          <CharString index="149">
            -40 callsubr
            83 -21 return
          </CharString>
          <CharString index="150">
            220 -540 320 return
          </CharString>
          <CharString index="151">
            hintmask 10100000
            52 callsubr
            return
          </CharString>
          <CharString index="152">
            rlineto
            136 vlineto
            -168 -10 10 178 rlineto
            -136 hlineto
            10 -178 -168 10 rlineto
            -136 vlineto
            168 return
          </CharString>
          <CharString index="153">
            -128 66 -366 172 366 84 134 -84 12 vlineto
            47 20 15 32 16 18 -4 -6 16 vhcurveto
            return
          </CharString>
          <CharString index="154">
            62 36 24 54 31 25 -12 -26 25 vhcurveto
            92 92 rlineto
            56 -50 -59 28 -81 hhcurveto
            -136 -100 -82 -132 return
          </CharString>
          <CharString index="155">
            119 vlineto
            16 15 13 6 18 hhcurveto
            30 16 -21 -53 -62 -23 -19 -26 -15 -15 3 11 -13 hvcurveto
            endchar
          </CharString>
          <CharString index="156">
            90 callsubr
            endchar
          </CharString>
          <CharString index="157">
            26 6 12 10 16 return
          </CharString>
          <CharString index="158">
            rlineto
            -144 hlineto
            return
          </CharString>
          <CharString index="159">
            152 574 rmoveto
            104 hlineto
            27 callgsubr
            -64 callgsubr
            return
          </CharString>
          <CharString index="160">
            192 126 hstem
            120 360 vstem
            120 192 rmoveto
            360 126 -360 hlineto
            endchar
          </CharString>
          <CharString index="161">
            62 hstem
            180 82 76 82 vstem
            300 return
          </CharString>
          <CharString index="162">
            260 hstem
            170 260 vstem
            170 return
          </CharString>
          <CharString index="163">
            524 hstem
            206 118 vstem
            206 return
          </CharString>
          <CharString index="164">
            109 hstem
            272 124 vstem
            272 return
          </CharString>
          <CharString index="165">
            -160 -540 31 callgsubr
          </CharString>
          <CharString index="166">
            -12 60 rlineto
            -140 hlineto
            return
          </CharString>
          <CharString index="167">
            -70 callgsubr
            38 124 117 callgsubr
            return
          </CharString>
          <CharString index="168">
            -22 callgsubr
            90 44 46 78 8 hvcurveto
            return
          </CharString>
          <CharString index="169">
            hstemhm
            -26 callgsubr
            return
          </CharString>
          <CharString index="170">
            hstemhm
            56 172 return
          </CharString>
          <CharString index="171">
            208 14 callsubr
          </CharString>
          <CharString index="172">
            192 126 hstem
            20 560 vstem
            20 192 rmoveto
            560 126 -560 hlineto
            endchar
          </CharString>
          <CharString index="173">
            -21 650 -20 return
          </CharString>
          <CharString index="174">
            132 hstemhm
            50 152 18 160 18 152 hintmask 11110100
            76 callgsubr
            149 101 return
          </CharString>
          <CharString index="175">
            -500 rmoveto
            50 vlineto
            -270 450 rlineto
            -30 hlineto
            return
          </CharString>
          <CharString index="176">
            21 -73 callgsubr
            50 74 return
          </CharString>
          <CharString index="177">
            -54 -32 72 -84 hhcurveto
            -66 -62 -44 -108 -46 hvcurveto
            return
          </CharString>
          <CharString index="178">
            73 -73 109 hstemhm
            148 124 return
          </CharString>
          <CharString index="179">
            hstem
            58 172 162 168 vstem
            return
          </CharString>
          <CharString index="180">
            134 244 134 return
          </CharString>
          <CharString index="181">
            -220 540 -320 return
          </CharString>
          <CharString index="182">
            126 272 126 return
          </CharString>
          <CharString index="183">
            rlineto
            4 hlineto
            48 return
          </CharString>
          <CharString index="184">
            -294 rmoveto
            -97 callsubr
            return
          </CharString>
          <CharString index="185">
            vmoveto
            83 callsubr
          </CharString>
          <CharString index="186">
            96 -120 rlineto
            94 hlineto
            endchar
          </CharString>
          <CharString index="187">
            hstemhm
            58 172 return
          </CharString>
          <CharString index="188">
            161 73 53 22 32 58 vhcurveto
            -48 84 rlineto
            -22 -38 -32 -14 -59 hhcurveto
            -102 -103 return
          </CharString>
          <CharString index="189">
            -280 1160 hstem
            -80 760 vstem
            80 880 rmoveto
            -160 -160 hlineto
            return
          </CharString>
          <CharString index="190">
            64 46 40 60 60 -46 42 -64 -64 -46 -42 -60 -60 46 -40 64 hvcurveto
            endchar
          </CharString>
          <CharString index="191">
            -40 callsubr
            50 138 248 138 return
          </CharString>
          <CharString index="192">
            hstemhm
            -9 callgsubr
            -2 132 return
          </CharString>
          <CharString index="193">
            160 -48 callsubr
            return
          </CharString>
          <CharString index="194">
            156 hstem
            118 156 52 156 vstem
            return
          </CharString>
          <CharString index="195">
            -320 -620 96 callgsubr
          </CharString>
          <CharString index="196">
            176 52 176 return
          </CharString>
          <CharString index="197">
            160 -760 hlineto
            return
          </CharString>
          <CharString index="198">
            74 hlineto
            24 5 15 12 16 26 35 -36 45 hhcurveto
            44 44 34 88 10 hvcurveto
            return
          </CharString>
          <CharString index="199">
            rmoveto
            160 1400 116 callgsubr
          </CharString>
          <CharString index="200">
            -300 129 callsubr
            return
          </CharString>
          <CharString index="201">
            hstem
            156 288 vstem
            return
          </CharString>
          <CharString index="202">
            96 -15 callsubr
            return
          </CharString>
          <CharString index="203">
            80 hlineto
            136 124 69 159 164 -120 52 -140 hvcurveto
            return
          </CharString>
          <CharString index="204">
            -42 callsubr
            60 return
          </CharString>
          <CharString index="205">
            rmoveto
            -130 hlineto
            102 -124 rlineto
            96 hlineto
            return
          </CharString>
          <CharString index="206">
            -26 -6 -14 -10 -16 -26 -36 36 -44 hhcurveto
            -44 -44 -34 -88 -10 hvcurveto
            return
          </CharString>
          <CharString index="207">
            21 -21 366 return
          </CharString>
          <CharString index="208">
            hstem
            18 113 37 113 37 113 37 113 vstem
            18 return
          </CharString>
          <CharString index="209">
            160 -300 149 callgsubr
          </CharString>
          <CharString index="210">
            320 rmoveto
            124 314 -96 hlineto
            return
          </CharString>
          <CharString index="211">
            320 188 -320 hlineto
            return
          </CharString>
          <CharString index="212">
            182 -58 rmoveto
            94 hlineto
            return
          </CharString>
          <CharString index="213">
            138 436 134 return
          </CharString>
          <CharString index="214">
            144 506 -20 return
          </CharString>
          <CharString index="215">
            -460 hlineto
            endchar
          </CharString>
          <CharString index="216">
            -750 rmoveto
            50 vlineto
            -420 700 rlineto
            -30 hlineto
            450 return
          </CharString>
          <CharString index="217">
            588 540 rmoveto
            -86 84 -160 -198 58 -54 rlineto
            return
          </CharString>
          <CharString index="218">
            134 hstemhm
            188 212 -56 172 -152 172 return
          </CharString>
          <CharString index="219">
            858 rmoveto
            -144 hlineto
            120 -114 rlineto
            108 hlineto
            return
          </CharString>
          <CharString index="220">
            132 -70 70 return
          </CharString>
          <CharString index="221">
            vstem
            -200 vmoveto
            return
          </CharString>
          <CharString index="222">
            2 hvcurveto
            -94 hlineto
            return
          </CharString>
          <CharString index="223">
            -200 1000 hstemhm
            0 300 0 300 hintmask 11000000
            return
          </CharString>
          <CharString index="224">
            85 callsubr
            hintmask 11111000
            return
          </CharString>
          <CharString index="225">
            -30 callgsubr
            hstemhm
            -75 callsubr
            return
          </CharString>
          <CharString index="226">
            177 39 rmoveto
            44 32 27 41 40 -32 29 -44 -44 return
          </CharString>
          <CharString index="227">
            hstem
            300 300 vstem
            300 -200 rmoveto
            300 return
          </CharString>
          <CharString index="228">
            209 hstem
            171 115 165 115 vstem
            99 return
          </CharString>
          <CharString index="229">
            -248 194 rmoveto
            288 78 -288 hlineto
            endchar
          </CharString>
          <CharString index="230">
            hstemhm
            202 220 -28 156 return
          </CharString>
          <CharString index="231">
            13 callgsubr
            50 return
          </CharString>
          <CharString index="232">
            108 94 callsubr
            return
          </CharString>
          <CharString index="233">
            -74 callgsubr
            220 return
          </CharString>
          <CharString index="234">
            114 36 122 return
          </CharString>
          <CharString index="235">
            -540 160 return
          </CharString>
          <CharString index="236">
            620 -160 return
          </CharString>
          <CharString index="237">
            8 -22 -38 10 -46 hhcurveto
            -148 -50 -95 -107 hvcurveto
            return
          </CharString>
          <CharString index="238">
            155 96 hstem
            147 119 92 122 vstem
            return
          </CharString>
          <CharString index="239">
            -250 1000 hstem
            224 152 vstem
            224 return
          </CharString>
          <CharString index="240">
            -12 120 rlineto
            4 hlineto
            46 -134 rlineto
            64 hlineto
            return
          </CharString>
          <CharString index="241">
            -250 rmoveto
            50 vlineto
            -120 200 rlineto
            -30 hlineto
            return
          </CharString>
          <CharString index="242">
            38 21 38 rlinecurve
            4 hlineto
            -2 -43 -4 -64 -43 vvcurveto
            return
          </CharString>
          <CharString index="243">
            140 rmoveto
            460 320 108 callsubr
          </CharString>
          <CharString index="244">
            -234 66 189 -21 return
          </CharString>
          <CharString index="245">
            118 -48 124 hstemhm
            return
          </CharString>
          <CharString index="246">
            138 374 138 return
          </CharString>
          <CharString index="247">
            176 hintmask 11110100
            return
          </CharString>
          <CharString index="248">
            hstemhm
            155 callsubr
            -193 166 hintmask 01100000
            return
          </CharString>
          <CharString index="249">
            700 74 36 14 hstem
            158 284 vstem
            return
          </CharString>
          <CharString index="250">
            62 159 callgsubr
            return
          </CharString>
          <CharString index="251">
            -56 50 82 -34 108 hhcurveto
            137 123 return
          </CharString>
          <CharString index="252">
            -80 140 rmoveto
            300 128 callsubr
            hlineto
            return
          </CharString>
          <CharString index="253">
            hlineto
            18 158 rlineto
            -96 hlineto
            -20 -158 rlineto
            return
          </CharString>
          <CharString index="254">
            -20 hstemhm
            26 162 50 130 50 162 return
          </CharString>
          <CharString index="255">
            74 -48 rlineto
            24 42 18 6 38 hhcurveto
            56 44 return
          </CharString>
          <CharString index="256">
            540 58 callsubr
          </CharString>
          <CharString index="257">
            320 222 -320 hlineto
            return
          </CharString>
          <CharString index="258">
            44 callgsubr
            74 return
          </CharString>
          <CharString index="259">
            -21 506 144 return
          </CharString>
          <CharString index="260">
            vstem
            64 hmoveto
            172 return
          </CharString>
          <CharString index="261">
            rlineto
            -180 hlineto
            return
          </CharString>
          <CharString index="262">
            190 220 return
          </CharString>
          <CharString index="263">
            -152 90 290 100 290 90 hstemhm
            return
          </CharString>
          <CharString index="264">
            140 hstem
            330 160 vstem
            195 return
          </CharString>
          <CharString index="265">
            -70 callgsubr
            38 118 return
          </CharString>
          <CharString index="266">
            hhcurveto
            -36 -30 20 56 -14 hvcurveto
            216 hlineto
            return
          </CharString>
          <CharString index="267">
            21 71 callgsubr
            return
          </CharString>
          <CharString index="268">
            136 -108 288 -108 136 return
          </CharString>
          <CharString index="269">
            hstem
            75 150 150 150 vstem
            75 return
          </CharString>
          <CharString index="270">
            -320 hlineto
            endchar
          </CharString>
        <CharString name=".notdef">
          0 104 452 104 hstem
          24 112 328 112 vstem
          24 hmoveto
          552 660 -552 hlineto
          112 -488 rmoveto
          336 vlineto
          82 -168 rlineto
          164 hmoveto
          82 168 rlineto
          -336 vlineto
          -228 -68 rmoveto
          26 56 36 96 rlineto
          4 hlineto
          36 -96 26 -56 rlineto
          -66 320 rmoveto
          -40 96 -18 36 77 callgsubr
          -18 -36 -40 -96 rlineto
          endchar
        </CharString>
        <CharString name="A">
          21 -73 callgsubr
          hstem
          0 600 vstem
          239 271 -106 callsubr
        </CharString>
        <CharString name="AE">
          0 144 -12 133 -3 144 100 144 -128 128 hstemhm
          309 151 hintmask 01001100
          242 265 rmoveto
          22 83 12 52 16 60 14 62 rlinecurve
          3 -257 hlineto
          hintmask 10110100
          151 -121 rmoveto
          118 107 144 -107 100 128 144 -402 vlineto
          -190 -650 rlineto
          176 hlineto
          hintmask 01010100
          35 132 rlineto
          102 hlineto
          hintmask 10110100
          -132 287 144 vlineto
          endchar
        </CharString>
        <CharString name="Aacute">
          21 -73 callgsubr
          50 124 hstem
          0 600 vstem
          37 callsubr
          -113 -429 -106 callsubr
        </CharString>
        <CharString name="Abreve">
          21 -73 callgsubr
          50 124 hstem
          0 600 vstem
          350 824 rmoveto
          -50 callsubr
          90 44 46 78 8 hvcurveto
          -203 -553 -106 callsubr
        </CharString>
        <CharString name="Acircumflex">
          21 -73 callgsubr
          50 124 hstem
          0 600 vstem
          298 758 rmoveto
          -89 callsubr
          130 hlineto
          -11 -429 -106 callsubr
        </CharString>
        <CharString name="Adieresis">
          21 -73 callgsubr
          44 87 callsubr
          404 694 rmoveto
          -46 callsubr
          -52 callsubr
          -208 -4 callgsubr
          -52 callsubr
          43 -423 -106 callsubr
        </CharString>
        <CharString name="Agrave">
          21 -73 callgsubr
          50 124 hstem
          0 600 vstem
          25 callgsubr
          -9 -429 -106 callsubr
        </CharString>
        <CharString name="Amacron">
          21 -73 callgsubr
          66 108 hstem
          152 296 vstem
          448 160 callgsubr
          -209 -445 -106 callsubr
        </CharString>
        <CharString name="Aogonek">
          -228 110 139 -73 callgsubr
          hstem
          382 124 vstem
          239 271 rmoveto
          10 45 15 62 16 78 14 66 rlinecurve
          4 hlineto
          16 -65 16 -79 15 -62 10 -45 rcurveline
          225 -375 rmoveto
          -7 -9 -14 -7 -15 hhcurveto
          -20 -16 12 22 40 36 44 58 hvcurveto
          -196 650 rlineto
          8 callsubr
          48 hlineto
          -32 -17 -52 -48 -65 5 callsubr
          endchar
        </CharString>
        <CharString name="Aring">
          21 -73 callgsubr
          46 62 80 54 callsubr
          838 rmoveto
          21 17 -16 -24 -24 -17 -16 -21 -21 -17 16 24 24 17 16 21 hvcurveto
          -142 vmoveto
          72 48 40 62 62 -48 40 -72 -72 -48 -40 -62 -62 48 -40 72 hvcurveto
          -61 -425 -106 callsubr
        </CharString>
        <CharString name="Atilde">
          21 -73 callgsubr
          50 146 hstem
          0 600 vstem
          394 846 rmoveto
          -89 callgsubr
          54 50 44 102 12 hvcurveto
          -241 -575 -106 callsubr
        </CharString>
        <CharString name="B">
          0 132 142 120 124 132 hstemhm
          76 172 118 168 -140 168 hintmask 11110100
          76 hmoveto
          234 hlineto
          140 112 58 134 86 -46 48 -92 18 hvcurveto
          4 vlineto
          hintmask 11111000
          76 20 34 64 56 vvcurveto
          128 -108 34 -136 vhcurveto
          -214 hlineto
          172 -256 rmoveto
          124 38 vlineto
          56 24 -16 -40 -40 -24 -28 -56 hvcurveto
          -38 -262 rmoveto
          142 vlineto
          hintmask 11110100
          50 hlineto
          68 28 -20 -48 -48 -28 -26 -68 hvcurveto
          endchar
        </CharString>
        <CharString name="C">
          -70 callgsubr
          hstem
          51 176 -87 callsubr
          endchar
        </CharString>
        <CharString name="Cacute">
          -70 callgsubr
          38 124 hstem
          51 176 -87 callsubr
          479 504 -67 callsubr
          endchar
        </CharString>
        <CharString name="Ccaron">
          -70 callgsubr
          38 124 hstem
          51 176 -87 callsubr
          355 504 -91 callgsubr
        </CharString>
        <CharString name="Ccedilla">
          -224 66 173 -21 520 148 hstem
          51 176 91 122 vstem
          481 188 rmoveto
          -30 -28 -34 -22 -42 hhcurveto
          -88 -62 68 122 118 62 70 80 44 30 -16 -26 30 hvcurveto
          94 106 rlineto
          44 -46 -68 40 -84 hhcurveto
          -176 -142 -124 -218 -191 108 -108 138 -27 hvcurveto
          -35 -70 rlineto
          -81 callgsubr
          12 29 69 7 63 31 49 57 rlinecurve
          endchar
        </CharString>
        <CharString name="Ccircumflex">
          -70 callgsubr
          38 124 hstem
          51 176 -87 callsubr
          255 380 -90 callgsubr
          endchar
        </CharString>
        <CharString name="Cdotaccent">
          -70 callgsubr
          34 172 hstem
          51 176 33 192 -87 callsubr
          305 376 -62 callsubr
        </CharString>
        <CharString name="D">
          0 139 callsubr
          hstem
          58 172 152 176 vstem
          -55 callsubr
          endchar
        </CharString>
        <CharString name="Dcaron">
          0 139 callsubr
          50 124 hstem
          58 172 152 176 vstem
          -55 callsubr
          114 686 -91 callgsubr
        </CharString>
        <CharString name="Dcroat">
          -36 callsubr
        </CharString>
        <CharString name="E">
          0 -53 callgsubr
          hstem
          86 172 vstem
          -97 callgsubr
          endchar
        </CharString>
        <CharString name="Eacute">
          0 -53 callgsubr
          50 124 hstem
          86 172 vstem
          -97 callgsubr
          406 174 -67 callsubr
          endchar
        </CharString>
        <CharString name="Ebreve">
          0 -53 callgsubr
          50 124 hstem
          86 172 vstem
          -97 callgsubr
          232 50 rmoveto
          -61 callgsubr
        </CharString>
        <CharString name="Ecaron">
          0 -53 callgsubr
          50 124 hstem
          86 172 vstem
          -97 callgsubr
          282 174 -91 callgsubr
        </CharString>
        <CharString name="Ecircumflex">
          0 -53 callgsubr
          50 124 hstem
          86 172 vstem
          -97 callgsubr
          182 50 -90 callgsubr
          endchar
        </CharString>
        <CharString name="Edieresis">
          0 -53 callgsubr
          44 156 hstemhm
          86 172 -122 156 52 156 hintmask 11101000
          -97 callgsubr
          hintmask 11110110
          128 44 -85 callsubr
        </CharString>
        <CharString name="Edotaccent">
          0 -53 callgsubr
          46 172 hstemhm
          86 172 -36 192 hintmask 11101000
          -97 callgsubr
          hintmask 11110100
          232 46 -62 callsubr
        </CharString>
        <CharString name="Egrave">
          0 -53 callgsubr
          50 124 hstem
          86 172 vstem
          -97 callgsubr
          180 50 -13 callsubr
        </CharString>
        <CharString name="Emacron">
          0 -53 callgsubr
          66 108 hstemhm
          86 172 -88 296 hintmask 11111000
          -97 callgsubr
          hintmask 11110100
          84 66 20 callgsubr
        </CharString>
        <CharString name="Eogonek">
          -228 110 118 -53 callgsubr
          hstem
          86 172 64 124 vstem
          86 hmoveto
          316 hlineto
          -33 -20 -47 -47 -63 0 callsubr
          41 38 43 46 hvcurveto
          6 144 -278 116 228 144 -228 102 268 144 -440 hlineto
          endchar
        </CharString>
        <CharString name="Eth">
          -36 callsubr
        </CharString>
        <CharString name="Euro">
          -12 132 88 84 44 84 94 132 hstem
          92 172 vstem
          496 168 rmoveto
          -30 -28 -32 -18 -42 hhcurveto
          -54 -39 30 58 -21 hvcurveto
          192 84 -207 hlineto
          -1 8 0 9 9 6 0 6 6 vvcurveto
          248 84 -235 hlineto
          61 18 37 33 56 hhcurveto
          40 30 -16 -22 30 hvcurveto
          94 92 rlineto
          52 -52 -68 26 -68 hhcurveto
          -144 -110 -81 -146 -36 hvcurveto
          -64 -5 rlineto
          -78 53 vlineto
          -1 -8 0 -8 -8 -7 0 -8 -7 vvcurveto
          -52 -4 rlineto
          -78 63 vlineto
          -146 35 109 -74 137 hhcurveto
          80 70 32 60 56 hvcurveto
          endchar
        </CharString>
        <CharString name="F">
          21 -21 238 144 124 144 hstem
          98 172 vstem
          98 hmoveto
          172 238 230 144 -230 124 269 144 -441 hlineto
          endchar
        </CharString>
        <CharString name="G">
          54 callgsubr
          hstem
          40 177 182 153 vstem
          -101 callsubr
          endchar
        </CharString>
        <CharString name="Gbreve">
          54 callgsubr
          38 124 hstem
          40 177 182 153 vstem
          -101 callsubr
          290 380 rmoveto
          -61 callgsubr
        </CharString>
        <CharString name="Gcaron">
          54 callgsubr
          38 124 hstem
          40 177 182 153 vstem
          -101 callsubr
          340 504 -91 callgsubr
        </CharString>
        <CharString name="Gcircumflex">
          54 callgsubr
          38 124 hstem
          40 177 182 153 vstem
          -101 callsubr
          240 380 -90 callgsubr
          endchar
        </CharString>
        <CharString name="Gdotaccent">
          54 callgsubr
          34 172 hstemhm
          40 177 17 192 -27 153 hintmask 11101010
          -101 callsubr
          hintmask 11111100
          290 376 -62 callsubr
        </CharString>
        <CharString name="H">
          21 124 callgsubr
          hstem
          58 172 140 172 vstem
          -21 callgsubr
          endchar
        </CharString>
        <CharString name="Hbar">
          21 -21 258 150 76 76 -76 80 -80 166 80 callsubr
          140 172 hintmask 11001110
          370 408 rmoveto
          -140 76 140 hlineto
          hintmask 11010110
          230 80 rmoveto
          -58 hlineto
          hintmask 11001110
          86 -172 vlineto
          hintmask 11010110
          -86 -140 vlineto
          hintmask 11001110
          86 -172 vlineto
          hintmask 11100110
          -87 vlineto
          -58 -5 rlineto
          hintmask 11001110
          -74 58 -484 172 258 140 -258 172 484 58 vlineto
          endchar
        </CharString>
        <CharString name="Hcircumflex">
          21 124 callgsubr
          70 124 hstem
          58 172 140 172 vstem
          -21 callgsubr
          191 50 -90 callgsubr
          endchar
        </CharString>
        <CharString name="I">
          13 callgsubr
          3 callgsubr
          -88 callgsubr
          endchar
        </CharString>
        <CharString name="Iacute">
          124 callsubr
          124 3 callgsubr
          -88 callgsubr
          408 680 -67 callsubr
          endchar
        </CharString>
        <CharString name="Icircumflex">
          124 callsubr
          124 3 callgsubr
          -88 callgsubr
          184 556 -90 callgsubr
          endchar
        </CharString>
        <CharString name="Idieresis">
          13 callgsubr
          44 121 callgsubr
          hintmask 11001000
          -88 callgsubr
          hintmask 11110100
          130 550 -85 callsubr
        </CharString>
        <CharString name="Idotaccent">
          13 callgsubr
          46 172 hstemhm
          204 192 -182 172 hintmask 11001000
          -88 callgsubr
          hintmask 11110000
          234 552 -62 callsubr
        </CharString>
        <CharString name="Igrave">
          124 callsubr
          124 3 callgsubr
          -88 callgsubr
          182 556 -13 callsubr
        </CharString>
        <CharString name="Imacron">
          13 callgsubr
          66 108 hstemhm
          152 296 -234 172 hintmask 11101000
          -88 callgsubr
          hintmask 11110000
          86 572 20 callgsubr
        </CharString>
        <CharString name="Iogonek">
          -228 110 118 30 callgsubr
          hstemhm
          184 124 -94 172 hintmask 01101000
          66 hmoveto
          hintmask 11110000
          195 hlineto
          -28 -18 -49 -46 -66 5 callsubr
          -38 86 rlineto
          -6 -8 -14 -8 -13 hhcurveto
          -19 -20 10 24 32 20 34 58 18 hvcurveto
          148 144 hlineto
          hintmask 01101000
          -148 362 148 144 -468 -144 148 -362 -148 hlineto
          endchar
        </CharString>
        <CharString name="Itilde">
          124 callsubr
          146 3 callgsubr
          -88 callgsubr
          298 556 rmoveto
          54 50 44 102 12 hvcurveto
          -86 hlineto
          -89 callgsubr
          endchar
        </CharString>
        <CharString name="J">
          -12 148 370 144 3 callsubr
          endchar
        </CharString>
        <CharString name="Jcircumflex">
          -12 148 370 144 50 124 3 callsubr
          124 498 -90 callgsubr
          endchar
        </CharString>
        <CharString name="K">
          33 callsubr
          hstem
          57 173 8 callgsubr
          endchar
        </CharString>
        <CharString name="L">
          0 107 callsubr
          hstem
          96 172 vstem
          -28 callgsubr
          endchar
        </CharString>
        <CharString name="Lacute">
          0 107 callsubr
          70 124 hstem
          96 172 vstem
          -28 callgsubr
          275 174 -67 callsubr
          endchar
        </CharString>
        <CharString name="Lcaron">
          0 144 364 142 -142 226 hstemhm
          96 172 114 104 hintmask 11011000
          -28 callgsubr
          361 -142 rmoveto
          hintmask 10111000
          39 callsubr
          hintmask 11011000
          6 -226 rlineto
          endchar
        </CharString>
        <CharString name="Ldot">
          0 144 112 202 192 -20 hstem
          96 172 84 220 vstem
          -28 callgsubr
          366 -394 -106 callgsubr
        </CharString>
        <CharString name="Lslash">
          0 107 callsubr
          hstem
          96 172 vstem
          268 144 rmoveto
          127 vlineto
          199 111 rlineto
          132 vlineto
          -199 -111 rlineto
          247 -172 -331 vlineto
          -71 -41 rlineto
          -132 vlineto
          71 41 rlineto
          -187 449 144 vlineto
          endchar
        </CharString>
        <CharString name="M">
          21 -21 483 167 hstem
          58 136 210 138 vstem
          -18 callgsubr
          endchar
        </CharString>
        <CharString name="N">
          33 callsubr
          hstem
          60 164 152 164 vstem
          -95 callgsubr
          endchar
        </CharString>
        <CharString name="Nacute">
          33 callsubr
          70 124 hstem
          60 164 152 164 vstem
          -95 callgsubr
          420 174 -67 callsubr
          endchar
        </CharString>
        <CharString name="Ncaron">
          33 callsubr
          70 124 hstem
          60 164 152 164 vstem
          -95 callgsubr
          296 174 -91 callgsubr
        </CharString>
        <CharString name="Ntilde">
          33 callsubr
          70 146 hstem
          60 164 152 164 vstem
          -95 callgsubr
          310 50 rmoveto
          54 50 44 102 12 hvcurveto
          -86 hlineto
          -89 callgsubr
          endchar
        </CharString>
        <CharString name="O">
          -70 callgsubr
          hstem
          -26 callgsubr
          vstem
          -107 callsubr
          endchar
        </CharString>
        <CharString name="OE">
          0 138 -138 -53 callgsubr
          -138 138 hstemhm
          14 176 98 152 hintmask 01110110
          14 328 rmoveto
          -230 119 -98 151 vhcurveto
          312 144 -156 116 110 144 -110 102 146 144 -292 hlineto
          -156 -124 -92 -230 hvcurveto
          hintmask 10101110
          176 hmoveto
          154 37 30 47 vhcurveto
          14 -374 -14 hlineto
          -47 -37 36 154 hvcurveto
          endchar
        </CharString>
        <CharString name="Oacute">
          -70 callgsubr
          38 124 hstem
          -26 callgsubr
          vstem
          -107 callsubr
          174 688 -67 callsubr
          endchar
        </CharString>
        <CharString name="Ocircumflex">
          -70 callgsubr
          38 124 hstem
          -26 callgsubr
          vstem
          -107 callsubr
          -50 564 -90 callgsubr
          endchar
        </CharString>
        <CharString name="Odieresis">
          -70 callgsubr
          32 156 hstemhm
          34 176 -92 156 52 156 -92 176 hintmask 11110010
          -107 callsubr
          hintmask 11101100
          -104 558 -85 callsubr
        </CharString>
        <CharString name="Ograve">
          -70 callgsubr
          38 124 hstem
          -26 callgsubr
          vstem
          -107 callsubr
          -52 564 -13 callsubr
        </CharString>
        <CharString name="Ohorn">
          -70 callgsubr
          87 callgsubr
          hintmask 11110000
          300 136 rmoveto
          -56 -34 74 118 118 34 68 56 56 34 -68 -118 -118 -34 -74 -56 hvcurveto
          hintmask 11101000
          -80 callsubr
          hintmask 11110000
          -11 callgsubr
          hintmask 11101000
          66 17 48 40 72 -62 callgsubr
        </CharString>
        <CharString name="Ohungarumlaut">
          -70 callgsubr
          38 124 hstem
          -26 callgsubr
          vstem
          -107 callsubr
          -34 564 -3 callgsubr
        </CharString>
        <CharString name="Omacron">
          -70 callgsubr
          54 108 hstemhm
          34 176 -58 296 -58 140 callsubr
          -107 callsubr
          hintmask 11101000
          -148 580 20 callgsubr
        </CharString>
        <CharString name="Oslash">
          -70 callgsubr
          hstem
          -26 callgsubr
          vstem
          390 352 rmoveto
          -8 0 -8 -8 vvcurveto
          -118 -34 -74 -56 -17 -16 7 14 -13 vhcurveto
          -42 126 rmoveto
          -1 14 -1 15 16 vvcurveto
          118 34 68 56 21 18 -9 -18 14 vhcurveto
          235 151 rmoveto
          -90 58 -53 -77 rlineto
          28 -41 -49 15 -55 hhcurveto
          -158 -108 -120 -214 -91 20 -76 34 -56 hvcurveto
          -64 -93 90 -58 50 72 rlineto
          -25 39 46 -13 51 hhcurveto
          158 108 126 214 85 -17 70 -31 54 hvcurveto
          endchar
        </CharString>
        <CharString name="Otilde">
          -70 callgsubr
          38 146 hstem
          -26 callgsubr
          vstem
          -107 callsubr
          64 564 rmoveto
          54 50 44 102 12 hvcurveto
          -86 hlineto
          -89 callgsubr
          endchar
        </CharString>
        <CharString name="P">
          21 -21 206 136 172 136 hstem
          63 172 172 168 vstem
          63 hmoveto
          172 206 96 callsubr
          -252 hlineto
          172 -308 100 callgsubr
        </CharString>
        <CharString name="Q">
          -184 136 562 148 hstem
          31 176 178 176 vstem
          296 514 rmoveto
          56 33 -68 -118 -118 -33 -74 -56 -56 -33 74 118 118 33 68 56 hvcurveto
          264 -548 rmoveto
          -7 -14 -20 -7 -20 hhcurveto
          -39 -49 11 44 -23 hvcurveto
          102 43 64 113 165 vvcurveto
          213 -107 121 -158 -158 -107 -120 -214 -176 72 -116 113 -36 vhcurveto
          -109 43 94 -75 133 hhcurveto
          46 36 10 14 22 hvcurveto
          endchar
        </CharString>
        <CharString name="R">
          160 callsubr
          72 callsubr
          230 514 -48 callgsubr
        </CharString>
        <CharString name="Racute">
          160 callsubr
          50 124 72 callsubr
          476 21 callsubr
          -124 -186 -48 callgsubr
        </CharString>
        <CharString name="Rcaron">
          160 callsubr
          50 124 72 callsubr
          386 47 callgsubr
          12 -186 -48 callgsubr
        </CharString>
        <CharString name="S">
          -70 callgsubr
          hstem
          68 174 138 176 vstem
          -102 callsubr
          endchar
        </CharString>
        <CharString name="Sacute">
          -70 callgsubr
          38 124 hstem
          68 174 138 176 vstem
          -102 callsubr
          338 625 -67 callsubr
          endchar
        </CharString>
        <CharString name="Scaron">
          -70 callgsubr
          38 124 hstem
          68 174 138 176 vstem
          -102 callsubr
          214 625 -91 callgsubr
        </CharString>
        <CharString name="Scircumflex">
          -70 callgsubr
          38 124 hstem
          68 174 138 176 vstem
          -102 callsubr
          114 501 -90 callgsubr
          endchar
        </CharString>
        <CharString name="T">
          21 152 callsubr
          3 callgsubr
          -18 callsubr
          endchar
        </CharString>
        <CharString name="Tcaron">
          21 152 callsubr
          50 124 3 callgsubr
          -18 callsubr
          136 318 -91 callgsubr
        </CharString>
        <CharString name="Thorn">
          21 -21 112 136 172 136 94 -20 hstem
          62 172 172 168 vstem
          62 hmoveto
          172 112 96 callsubr
          -80 94 -172 hlineto
          172 -402 100 callgsubr
        </CharString>
        <CharString name="U">
          -31 callsubr
          hstem
          -9 callgsubr
          vstem
          -103 callgsubr
          endchar
        </CharString>
        <CharString name="Uacute">
          -31 callsubr
          70 124 hstem
          -9 callgsubr
          vstem
          -103 callgsubr
          416 174 -67 callsubr
          endchar
        </CharString>
        <CharString name="Ubreve">
          -31 callsubr
          70 124 hstem
          -9 callgsubr
          vstem
          -103 callgsubr
          242 50 rmoveto
          -61 callgsubr
        </CharString>
        <CharString name="Ucircumflex">
          -31 callsubr
          70 124 hstem
          -9 callgsubr
          vstem
          -103 callgsubr
          192 50 -90 callgsubr
          endchar
        </CharString>
        <CharString name="Udieresis">
          -31 callsubr
          64 156 80 callsubr
          -112 156 52 156 -106 166 hintmask 11110010
          -103 callgsubr
          138 44 rmoveto
          hintmask 11101010
          -46 callsubr
          hvcurveto
          hintmask 11110010
          -52 callsubr
          208 -4 callgsubr
          hvcurveto
          hintmask 11110100
          -46 -32 -34 -44 hvcurveto
          hintmask 11110010
          -44 32 -34 46 vhcurveto
          endchar
        </CharString>
        <CharString name="Ugrave">
          -31 callsubr
          70 124 hstem
          -9 callgsubr
          vstem
          -103 callgsubr
          190 50 -13 callsubr
        </CharString>
        <CharString name="Uhorn">
          -31 callsubr
          85 callsubr
          hintmask 11101000
          524 758 -51 callsubr
          hintmask 11110000
          -76 callgsubr
          hintmask 11101000
          74 14 56 41 78 -62 callgsubr
        </CharString>
        <CharString name="Uhungarumlaut">
          -31 callsubr
          70 124 hstem
          -9 callgsubr
          vstem
          -103 callgsubr
          208 50 -3 callgsubr
        </CharString>
        <CharString name="Umacron">
          -31 callsubr
          86 108 hstem
          -9 callgsubr
          vstem
          -103 callgsubr
          94 66 20 callgsubr
        </CharString>
        <CharString name="Uogonek">
          -228 110 129 -21 660 -20 80 callsubr
          -28 124 50 166 hintmask 11110100
          58 252 rmoveto
          -154 68 -96 140 -12 vhcurveto
          hintmask 11101100
          -14 -13 -50 -43 -64 0 callsubr
          26 12 29 80 39 hvcurveto
          85 41 39 82 119 vvcurveto
          398 -166 -418 vlineto
          -56 -19 -40 -55 vhcurveto
          hintmask 11110100
          -55 -17 40 56 hvcurveto
          51 callgsubr
          vlineto
          endchar
        </CharString>
        <CharString name="Uring">
          -31 callsubr
          66 62 80 62 80 callsubr
          -50 82 76 82 -44 166 hintmask 11111001
          -103 callgsubr
          hintmask 11110110
          242 46 10 callgsubr
        </CharString>
        <CharString name="Utilde">
          -31 callsubr
          70 146 hstem
          -9 callgsubr
          vstem
          -103 callgsubr
          306 50 rmoveto
          54 50 44 102 12 hvcurveto
          -86 hlineto
          -89 callgsubr
          endchar
        </CharString>
        <CharString name="V">
          0 160 -139 66 callsubr
          hstemhm
          4 592 hintmask 01110000
          196 hmoveto
          208 hlineto
          192 650 rlineto
          -176 hlineto
          -66 -284 rlineto
          hintmask 10110000
          -17 -69 -13 -67 -18 -70 rrcurveto
          -4 hlineto
          -18 70 -12 67 -18 69 -68 284 rcurveline
          -182 hlineto
          endchar
        </CharString>
        <CharString name="W">
          25 callsubr
          hstem
          2 597 -94 callsubr
          endchar
        </CharString>
        <CharString name="Wacute">
          25 callsubr
          70 124 hstem
          2 597 -94 callsubr
          472 174 -67 callsubr
          endchar
        </CharString>
        <CharString name="Wcircumflex">
          25 callsubr
          70 124 hstem
          2 597 -94 callsubr
          248 50 -90 callgsubr
          endchar
        </CharString>
        <CharString name="Wdieresis">
          25 callsubr
          64 156 hstem
          118 156 52 156 -94 callsubr
          194 44 -85 callsubr
        </CharString>
        <CharString name="Wgrave">
          25 callsubr
          70 124 hstem
          2 597 -94 callsubr
          246 50 -13 callsubr
        </CharString>
        <CharString name="X">
          33 callsubr
          hstem
          4 592 vstem
          4 hmoveto
          184 hlineto
          56 116 16 34 15 34 15 40 rlinecurve
          4 hlineto
          17 -40 15 -34 18 -34 60 -116 rcurveline
          192 hlineto
          -188 326 177 324 rlineto
          -184 hlineto
          -46 -106 -13 -30 -15 -36 -15 -42 rlinecurve
          -4 hlineto
          -19 42 -15 36 -15 30 -52 106 rcurveline
          -192 hlineto
          177 -316 rlineto
          endchar
        </CharString>
        <CharString name="Y">
          33 callsubr
          3 callgsubr
          -98 callsubr
          endchar
        </CharString>
        <CharString name="Yacute">
          33 callsubr
          70 124 3 callgsubr
          -98 callsubr
          260 609 -67 callsubr
          endchar
        </CharString>
        <CharString name="Ycircumflex">
          33 callsubr
          70 124 3 callgsubr
          -98 callsubr
          36 485 -90 callgsubr
          endchar
        </CharString>
        <CharString name="Ydieresis">
          33 callsubr
          64 121 callgsubr
          hintmask 11101000
          -98 callsubr
          hintmask 11110100
          -18 479 -85 callsubr
        </CharString>
        <CharString name="Ygrave">
          33 callsubr
          70 124 3 callgsubr
          -98 callsubr
          34 485 -13 callsubr
        </CharString>
        <CharString name="Z">
          13 callgsubr
          hstem
          53 497 vstem
          -44 callgsubr
          endchar
        </CharString>
        <CharString name="Zacute">
          124 callsubr
          124 hstem
          53 497 vstem
          -44 callgsubr
          435 720 -67 callsubr
          endchar
        </CharString>
        <CharString name="Zcaron">
          124 callsubr
          124 hstem
          53 497 vstem
          -44 callgsubr
          311 720 -91 callgsubr
        </CharString>
        <CharString name="Zdotaccent">
          13 callgsubr
          46 172 hstem
          218 192 vstem
          -44 callgsubr
          261 592 -62 callsubr
        </CharString>
        <CharString name="a">
          -12 -75 callgsubr
          -19 callgsubr
          hintmask 01111100
          52 callgsubr
          hintmask 10111100
          -84 callgsubr
          hintmask 01111100
          -105 callgsubr
          hintmask 10111100
          -102 callgsubr
          endchar
        </CharString>
        <CharString name="a.a">
          -83 callgsubr
          -30 callsubr
          hintmask 10100110
          -107 callgsubr
          hintmask 01010110
          -78 callsubr
          hintmask 01001110
          -83 callsubr
          hintmask 10100110
          -53 callsubr
          endchar
        </CharString>
        <CharString name="a.supa">
          -35 callgsubr
        </CharString>
        <CharString name="a.sups">
          -39 callgsubr
        </CharString>
        <CharString name="aacute">
          -42 callgsubr
          174 -19 callgsubr
          hintmask 01111110
          52 callgsubr
          hintmask 10111110
          -84 callgsubr
          hintmask 01111110
          -105 callgsubr
          hintmask 10111110
          -102 callgsubr
          262 592 -54 callgsubr
        </CharString>
        <CharString name="aacute.a">
          -83 callgsubr
          82 174 -30 callsubr
          hintmask 10100111
          -107 callgsubr
          hintmask 01010111
          -78 callsubr
          hintmask 01001111
          -83 callsubr
          hintmask 10100111
          -53 callsubr
          hintmask 01001111
          448 498 -54 callgsubr
        </CharString>
        <CharString name="abreve">
          -42 callgsubr
          92 hstemhm
          54 164 -66 94 120 94 -90 172 hintmask 0111110010000000
          52 callgsubr
          hintmask 1011110010000000
          -84 callgsubr
          hintmask 0111110010000000
          -105 callgsubr
          hintmask 1011110010000000
          -102 callgsubr
          hintmask 0111101100000000
          88 418 -76 callsubr
        </CharString>
        <CharString name="abreve.a">
          -83 callgsubr
          82 92 -21 callsubr
          -56 94 108 172 -160 94 hintmask 1010011010000000
          -107 callgsubr
          hintmask 0101011010000000
          -78 callsubr
          hintmask 0100111010000000
          -83 callsubr
          hintmask 1010011010000000
          -53 callsubr
          hintmask 0100110101000000
          20 callsubr
          endchar
        </CharString>
        <CharString name="acircumflex">
          -42 callgsubr
          174 -19 callgsubr
          hintmask 01111110
          52 callgsubr
          hintmask 10111110
          -84 callgsubr
          hintmask 01111110
          -105 callgsubr
          hintmask 10111110
          -102 callgsubr
          -86 418 -95 callsubr
          endchar
        </CharString>
        <CharString name="acircumflex.a">
          -83 callgsubr
          82 174 -30 callsubr
          hintmask 10100111
          -107 callgsubr
          hintmask 01010111
          -78 callsubr
          hintmask 01001111
          -83 callsubr
          hintmask 10100111
          -53 callsubr
          hintmask 01001111
          100 324 -95 callsubr
          endchar
        </CharString>
        <CharString name="acute">
          -4 callsubr
        </CharString>
        <CharString name="adieresis">
          -12 -75 callgsubr
          52 176 hstemhm
          54 164 -114 89 callsubr
          -138 172 hintmask 0111110010000000
          52 callgsubr
          hintmask 1011110010000000
          -84 callgsubr
          hintmask 0111110010000000
          -105 callgsubr
          hintmask 1011110010000000
          -102 callgsubr
          hintmask 0111101100000000
          -26 408 rmoveto
          -92 callgsubr
          228 hmoveto
          -92 callgsubr
          endchar
        </CharString>
        <CharString name="adieresis.a">
          -83 callgsubr
          72 176 -21 callsubr
          -104 89 callsubr
          -154 172 hintmask 1010011001000000
          -107 callgsubr
          hintmask 0101011001000000
          -78 callsubr
          hintmask 0100111001000000
          -83 callsubr
          hintmask 1010011001000000
          -53 callsubr
          hintmask 0100110110000000
          160 314 rmoveto
          -92 callgsubr
          228 hmoveto
          -92 callgsubr
          endchar
        </CharString>
        <CharString name="ae">
          -12 134 76 104 74 136 -130 130 hstemhm
          16 153 287 135 hintmask 11011100
          16 142 rmoveto
          -82 47 -72 93 44 38 20 52 52 vhcurveto
          -44 34 46 -28 72 hhcurveto
          38 56 16 32 40 hvcurveto
          -58 110 rlineto
          -18 -26 -21 -6 -23 159 callsubr
          3 12 4 26 30 vvcurveto
          134 -55 112 -103 -55 -33 -20 -44 -35 vhcurveto
          40 -24 -34 24 -56 hhcurveto
          -55 -53 -20 -36 -60 hvcurveto
          hintmask 11101100
          60 -112 rlineto
          21 36 38 11 24 hhcurveto
          28 13 -16 -35 5 hvcurveto
          hintmask 11011100
          -146 -31 -70 -48 -104 vvcurveto
          350 160 rmoveto
          58 7 22 22 22 hhcurveto
          30 9 -36 -44 hvcurveto
          -287 -146 rmoveto
          29 18 25 43 12 vhcurveto
          2 -19 2 -20 4 -25 7 -18 rlinecurve
          -12 -12 -15 -8 -14 hhcurveto
          -22 -13 13 23 hvcurveto
          endchar
        </CharString>
        <CharString name="agrave">
          -42 callgsubr
          174 -19 callgsubr
          hintmask 01111110
          52 callgsubr
          hintmask 10111110
          -84 callgsubr
          hintmask 01111110
          -105 callgsubr
          hintmask 10111110
          -102 callgsubr
          52 418 -45 callsubr
        </CharString>
        <CharString name="agrave.a">
          -83 callgsubr
          82 174 -30 callsubr
          hintmask 10100111
          -107 callgsubr
          hintmask 01010111
          -78 callsubr
          hintmask 01001111
          -83 callsubr
          hintmask 10100111
          -53 callsubr
          hintmask 01001111
          238 324 -45 callsubr
        </CharString>
        <CharString name="amacron">
          -12 -75 callgsubr
          76 108 hstemhm
          54 164 -56 288 -80 172 hintmask 01111101
          52 callgsubr
          hintmask 10111101
          -84 callgsubr
          hintmask 01111101
          -105 callgsubr
          hintmask 10111101
          -102 callgsubr
          hintmask 01111010
          -56 432 -29 callgsubr
          endchar
        </CharString>
        <CharString name="amacron.a">
          -83 callgsubr
          96 108 -21 callsubr
          -46 288 -96 172 hintmask 1010011010000000
          -107 callgsubr
          hintmask 0101011010000000
          -78 callsubr
          hintmask 0100111010000000
          -83 callsubr
          hintmask 1010011010000000
          -53 callsubr
          hintmask 0100110100000000
          130 338 -29 callgsubr
          endchar
        </CharString>
        <CharString name="ampersand">
          -12 130 432 112 hstemhm
          16 162 -106 141 65 130 hintmask 11101000
          178 186 rmoveto
          18 5 17 9 15 vhcurveto
          31 -37 35 -36 37 -32 rrcurveto
          -8 -14 -15 -5 -14 hhcurveto
          -46 -28 28 40 hvcurveto
          hintmask 11011000
          35 300 rmoveto
          42 14 22 17 25 9 -14 -28 -34 -21 -25 -30 -23 vhcurveto
          -9 21 -5 20 19 vvcurveto
          223 -112 rmoveto
          -10 -52 -16 -45 -20 -38 -36 28 -34 31 -28 32 rrcurveto
          58 46 58 50 82 vvcurveto
          94 -64 60 -104 -104 -64 -82 -94 -39 15 -47 27 -49 vhcurveto
          hintmask 11101000
          -53 -39 -45 -51 -85 vvcurveto
          -98 70 -90 144 72 60 22 37 49 vhcurveto
          46 -29 46 -19 47 -11 40 138 rcurveline
          -25 5 -28 12 -30 18 39 66 27 71 19 76 rrcurveto
          endchar
        </CharString>
        <CharString name="aogonek">
          108 callgsubr
          164 132 -103 -21 25 -21 222 102 52 136 hstemhm
          54 164 122 114 -84 172 hintmask 0100111101000000
          52 callgsubr
          hintmask 0110011110000000
          -84 callgsubr
          hintmask 1001011110000000
          14 -56 70 callgsubr
          hintmask 0100111101000000
          90 callgsubr
          hvcurveto
          hintmask 1000111110000000
          40 callsubr
          -20 -20 10 24 hvcurveto
          hintmask 0100111101000000
          28 20 34 68 16 vhcurveto
          278 vlineto
          164 -92 70 -142 -84 -78 -24 -42 -76 vhcurveto
          60 -112 rlineto
          28 60 42 14 42 hhcurveto
          56 34 -16 -36 6 hvcurveto
          -59 callgsubr
          hintmask 0110011101000000
          -102 callgsubr
          endchar
        </CharString>
        <CharString name="aogonek.a">
          108 callgsubr
          164 140 -111 -21 25 -64 callsubr
          -21 callsubr
          116 114 -84 172 hintmask 0110010010100000
          218 252 rmoveto
          88 38 32 42 24 22 -6 -18 20 vhcurveto
          -184 vlineto
          -28 -19 -21 -8 -28 hhcurveto
          -49 -29 34 90 hvcurveto
          -176 -2 rmoveto
          -162 84 -100 124 vhcurveto
          hintmask 0110000111000000
          44 52 24 34 34 hvcurveto
          4 hlineto
          hintmask 1001000111000000
          14 -50 70 callgsubr
          hintmask 0100100110100000
          90 callgsubr
          hvcurveto
          hintmask 1000100111000000
          40 callsubr
          -21 -19 11 23 hvcurveto
          hintmask 0100101010100000
          28 20 34 68 16 vhcurveto
          500 -134 vlineto
          hintmask 0100100110100000
          -83 callsubr
          hintmask 0110010010100000
          -53 callsubr
          endchar
        </CharString>
        <CharString name="approxequal">
          114 120 -48 120 48 120 -48 120 hstemhm
          42 516 hintmask 10011000
          144 346 rmoveto
          50 18 26 30 26 hhcurveto
          hintmask 10101000
          11 callgsubr
          hintmask 01011000
          70 callsubr
          102 -288 rmoveto
          50 18 26 30 26 hhcurveto
          hintmask 10101000
          11 callgsubr
          hintmask 01101000
          70 callsubr
          endchar
        </CharString>
        <CharString name="aring">
          -12 -75 callgsubr
          38 62 88 62 hstemhm
          54 164 -32 82 76 82 -56 172 hintmask 1011111001000000
          52 callgsubr
          -84 callgsubr
          hintmask 0111110101000000
          12 -52 rlineto
          140 278 hlineto
          164 -92 70 -142 -84 -78 -24 -42 -76 vhcurveto
          60 -112 rlineto
          28 60 42 14 42 hhcurveto
          56 34 -16 -36 6 hvcurveto
          hintmask 1011111001000000
          -59 callgsubr
          -102 callgsubr
          hintmask 0111110110000000
          88 394 -50 callgsubr
        </CharString>
        <CharString name="aring.a">
          -83 callgsubr
          58 62 88 62 -21 callsubr
          -22 82 76 82 -72 172 hintmask 1010011100100000
          -107 callgsubr
          hintmask 0101011100100000
          -78 callsubr
          hintmask 0100111100100000
          -83 callsubr
          hintmask 1010011100100000
          -53 callsubr
          hintmask 0100111011000000
          274 300 -50 callgsubr
        </CharString>
        <CharString name="arrowdown">
          -26 556 hstem
          232 136 vstem
          302 -26 rmoveto
          268 280 -92 80 -110 -130 rlineto
          326 -136 -326 vlineto
          -110 130 -92 -80 268 -280 rlineto
          endchar
        </CharString>
        <CharString name="arrowup">
          -26 556 hstem
          232 136 vstem
          298 530 rmoveto
          -268 -280 92 -80 110 130 rlineto
          -326 136 326 vlineto
          110 -130 92 80 -268 280 rlineto
          endchar
        </CharString>
        <CharString name="asciicircum">
          270 400 -154 154 hstemhm
          76 448 hintmask 10100000
          76 270 rmoveto
          140 hlineto
          38 110 rlineto
          hintmask 01100000
          44 136 rlineto
          4 hlineto
          44 -136 38 -110 rlineto
          140 hlineto
          -156 400 rlineto
          -136 hlineto
          endchar
        </CharString>
        <CharString name="asciitilde">
          234 120 -48 120 hstemhm
          42 516 hintmask 01100000
          144 226 rmoveto
          50 18 26 30 26 hhcurveto
          hintmask 10100000
          11 callgsubr
          hintmask 01100000
          70 callsubr
          endchar
        </CharString>
        <CharString name="asterisk">
          83 487 hstem
          249 102 vstem
          186 83 rmoveto
          114 136 114 -136 73 50 -93 153 150 67 -26 82 -160 -39 -14 174 rlineto
          -88 hlineto
          -14 -174 -160 39 -26 -82 150 -67 -93 -153 rlineto
          endchar
        </CharString>
        <CharString name="asterisk.a">
          265 447 hstem
          249 102 vstem
          200 265 rmoveto
          100 120 100 -120 73 50 -79 137 130 55 -26 82 -140 -27 -14 150 rlineto
          -88 hlineto
          -14 -150 -140 27 -26 -82 130 -55 -79 -137 rlineto
          endchar
        </CharString>
        <CharString name="at">
          -148 102 134 110 348 113 callgsubr
          400 rmoveto
          139 -68 109 -157 -163 -140 -116 -278 -277 153 -125 81 callsubr
          90 206 220 100 76 83 83 42 -60 -66 hvcurveto
          -16 -6 callgsubr
        </CharString>
        <CharString name="at.case">
          -28 102 74 110 302 113 callgsubr
          440 rmoveto
          122 -67 100 -150 -164 -147 -98 -250 -235 153 -107 81 callsubr
          72 164 192 108 58 83 76 41 -42 -48 hvcurveto
          -6 -6 callgsubr
        </CharString>
        <CharString name="atilde">
          -42 callgsubr
          156 -19 callgsubr
          hintmask 01111110
          52 callgsubr
          hintmask 10111110
          -84 callgsubr
          hintmask 01111110
          -105 callgsubr
          hintmask 10111110
          -102 callgsubr
          -94 418 -100 callgsubr
        </CharString>
        <CharString name="atilde.a">
          -83 callgsubr
          82 156 -30 callsubr
          hintmask 10100111
          -107 callgsubr
          hintmask 01010111
          -78 callsubr
          hintmask 01001111
          -83 callsubr
          hintmask 10100111
          -53 callsubr
          hintmask 01001111
          92 324 -100 callgsubr
        </CharString>
        <CharString name="b">
          -12 154 callgsubr
          33 -21 372 140 184 -20 62 callgsubr
          hintmask 00111110
          64 hmoveto
          134 hlineto
          hintmask 01011110
          111 callgsubr
          98 173 153 -78 100 -121 -45 -46 -18 -32 -36 hvcurveto
          4 72 rlineto
          162 -172 vlineto
          hintmask 10011110
          172 -544 rmoveto
          48 callgsubr
        </CharString>
        <CharString name="b.sups">
          260 88 131 callsubr
          147 260 rmoveto
          93 hlineto
          10 36 rlineto
          2 hlineto
          -29 26 30 -15 30 hhcurveto
          73 69 65 114 101 -52 67 -81 -29 -31 -12 -21 -23 hvcurveto
          2 47 rlineto
          106 -119 vlineto
          119 -357 rmoveto
          48 callsubr
        </CharString>
        <CharString name="backslash">
          -160 870 hstem
          64 472 vstem
          394 -160 rmoveto
          142 hlineto
          -330 870 rlineto
          -142 hlineto
          endchar
        </CharString>
        <CharString name="bar">
          132 callsubr
          -250 rmoveto
          152 1000 -152 hlineto
          endchar
        </CharString>
        <CharString name="braceleft">
          156 callsubr
          100 164 -40 144 hintmask 11101000
          224 -6 rmoveto
          -110 57 -36 130 vhcurveto
          83 90 -37 hlineto
          -76 -17 10 52 hvcurveto
          51 4 47 58 vvcurveto
          80 -31 28 -73 12 vhcurveto
          4 vlineto
          73 12 31 28 80 58 -4 47 51 vvcurveto
          52 17 10 76 vhcurveto
          37 90 -83 hlineto
          -130 -57 -36 -110 hvcurveto
          -70 10 -30 -62 vvcurveto
          hintmask 11110000
          -34 -30 -36 -104 -2 vhcurveto
          -100 vlineto
          hintmask 11101000
          104 -2 30 -36 -34 -62 -10 -30 -70 vvcurveto
          endchar
        </CharString>
        <CharString name="braceright">
          156 callsubr
          233 144 -40 164 hintmask 11110000
          107 -62 rmoveto
          -90 83 vlineto
          130 57 36 110 hvcurveto
          70 -11 30 62 vvcurveto
          34 30 36 105 2 vhcurveto
          hintmask 11101000
          100 vlineto
          hintmask 11110000
          -105 2 -30 36 34 62 11 30 70 vvcurveto
          110 -57 36 -130 vhcurveto
          -83 -90 37 hlineto
          75 17 -10 -52 hvcurveto
          -51 -3 -47 -58 vvcurveto
          -80 31 -28 73 -12 vhcurveto
          -4 vlineto
          -73 -12 -31 -28 -80 -58 3 -47 -51 vvcurveto
          -52 -17 -10 -75 vhcurveto
          endchar
        </CharString>
        <CharString name="bracketleft">
          -152 90 680 90 hstem
          191 130 vstem
          191 -152 rmoveto
          303 90 -173 680 173 90 -303 hlineto
          endchar
        </CharString>
        <CharString name="bracketright">
          -152 90 680 90 hstem
          279 131 vstem
          107 -62 rmoveto
          -90 303 860 -303 -90 172 -680 vlineto
          endchar
        </CharString>
        <CharString name="breve">
          574 92 hstem
          146 94 120 94 vstem
          300 574 -76 callsubr
        </CharString>
        <CharString name="brokenbar">
          132 callsubr
          320 rmoveto
          152 430 -152 hlineto
          -550 vmoveto
          -450 152 450 vlineto
          endchar
        </CharString>
        <CharString name="bullet">
          96 332 hstem
          130 340 vstem
          300 96 rmoveto
          98 72 72 94 94 -72 72 -98 -98 -72 -72 -94 -94 72 -72 98 hvcurveto
          endchar
        </CharString>
        <CharString name="c">
          -55 callgsubr
          hstem
          62 176 vstem
          -85 callgsubr
          endchar
        </CharString>
        <CharString name="c.sups">
          252 94 158 95 hstem
          166 122 vstem
          166 425 rmoveto
          -109 79 -64 102 38 47 12 29 36 vhcurveto
          -47 74 rlineto
          -10 -17 -19 -11 -24 hhcurveto
          -42 -31 31 48 49 29 30 48 14 14 -3 -12 16 hvcurveto
          54 73 rlineto
          22 -24 -37 15 -44 hhcurveto
          -101 -91 -64 -110 hvcurveto
          endchar
        </CharString>
        <CharString name="cacute">
          -29 callsubr
          174 hstem
          62 176 vstem
          -85 callgsubr
          452 498 -54 callgsubr
        </CharString>
        <CharString name="caron">
          574 174 hstem
          126 348 vstem
          228 574 -92 callsubr
        </CharString>
        <CharString name="ccaron">
          -29 callsubr
          174 hstem
          62 176 vstem
          -85 callgsubr
          206 324 -92 callsubr
        </CharString>
        <CharString name="ccedilla">
          -224 66 171 -21 382 138 hstem
          62 176 72 122 vstem
          387 -9 rmoveto
          55 8 60 21 49 40 -68 108 rcurveline
          -21 -34 -41 -21 -49 hhcurveto
          -70 -51 48 76 76 52 48 75 32 32 -9 -25 37 hvcurveto
          78 106 rlineto
          40 -42 -69 26 -78 hhcurveto
          -155 -138 -96 -166 -147 95 -91 131 -20 hvcurveto
          -34 -68 rlineto
          -81 callgsubr
          endchar
        </CharString>
        <CharString name="ccircumflex">
          -29 callsubr
          174 hstem
          62 176 vstem
          -85 callgsubr
          104 324 -95 callsubr
          endchar
        </CharString>
        <CharString name="cdotaccent">
          -55 callgsubr
          50 202 hstemhm
          62 176 -8 220 hintmask 11110000
          -85 callgsubr
          hintmask 11101000
          278 312 -106 callgsubr
        </CharString>
        <CharString name="cedilla">
          -39 callsubr
        </CharString>
        <CharString name="cent">
          -44 700 hstem
          90 166 54 92 vstem
          310 199 rmoveto
          -35 20 -19 38 49 vvcurveto
          49 17 38 37 20 vhcurveto
          152 -199 rmoveto
          -17 -13 -20 -12 -23 -5 rrcurveto
          245 vlineto
          14 -3 14 -7 16 -13 78 106 rcurveline
          -29 29 -43 21 -50 5 rrcurveto
          89 -92 -94 vlineto
          -128 -23 -92 -91 -142 vvcurveto
          -148 86 -92 134 -19 vhcurveto
          -91 92 91 vlineto
          43 7 47 19 38 33 rrcurveto
          endchar
        </CharString>
        <CharString name="circumflex">
          574 174 hstem
          126 348 vstem
          126 574 -95 callsubr
          endchar
        </CharString>
        <CharString name="colon">
          -12 260 50 55 callsubr
          428 rmoveto
          -12 callsubr
          -310 vmoveto
          -12 callsubr
          endchar
        </CharString>
        <CharString name="colonmonetary">
          10 -21 26 -21 520 132 -5 -20 25 -20 hstemhm
          72 172 80 54 hintmask 01100110
          358 514 rmoveto
          4 3 0 3 hhcurveto
          9 8 -1 -1 7 hvcurveto
          -46 -389 -12 3 -11 4 -10 6 rlinecurve
          -47 57 rmoveto
          -14 32 -8 42 51 vvcurveto
          85 20 60 38 30 vhcurveto
          174 -325 rmoveto
          -22 -24 -24 -16 -30 -6 44 370 rcurveline
          8 -5 8 -5 8 -6 94 92 rcurveline
          -30 30 -35 21 -36 13 13 112 rcurveline
          -54 hlineto
          -12 -100 rlineto
          1 -9 -10 1 -9 -2 -2 0 -2 hhcurveto
          12 98 rlineto
          -54 hlineto
          hintmask 01010110
          -12 -103 rlineto
          -151 -24 -97 -117 -188 vvcurveto
          -159 69 -101 103 -42 vhcurveto
          -14 -120 rlineto
          54 hlineto
          12 104 11 -2 12 -1 11 -1 rlinecurve
          hintmask 10001110
          -12 -100 rlineto
          54 hlineto
          12 99 72 5 63 31 51 55 rlinecurve
          endchar
        </CharString>
        <CharString name="comma">
          -218 456 -226 226 hstemhm
          308 134 hintmask 10100000
          218 -218 rmoveto
          149 42 75 95 131 vvcurveto
          hintmask 01100000
          36 callgsubr
        </CharString>
        <CharString name="comma.dnom">
          2 73 callgsubr
          -136 -38 callgsubr
        </CharString>
        <CharString name="comma.numr">
          262 73 callgsubr
          124 -38 callgsubr
        </CharString>
        <CharString name="comma.subs">
          -168 73 callgsubr
          -306 -38 callgsubr
        </CharString>
        <CharString name="comma.sups">
          442 73 callgsubr
          304 -38 callgsubr
        </CharString>
        <CharString name="copyright">
          -8 68 68 98 194 98 70 68 hstem
          14 72 50 121 257 72 vstem
          14 326 -9 callsubr
          50 -2 rmoveto
          -120 74 -76 104 41 37 16 24 32 vhcurveto
          -54 78 rlineto
          -12 -18 -12 -8 -22 hhcurveto
          -38 -23 38 60 52 22 44 45 16 12 -8 -14 13 hvcurveto
          63 70 rlineto
          27 -28 -34 23 -54 hhcurveto
          -92 -84 -76 -118 hvcurveto
          endchar
        </CharString>
        <CharString name="currency">
          147 99 168 98 hstem
          74 152 148 152 vstem
          112 56 rmoveto
          91 91 rlineto
          31 -13 33 -6 33 32 34 6 31 hflex1
          91 -91 85 85 -81 80 rlineto
          21 30 13 36 43 vvcurveto
          42 -12 36 -21 29 vhcurveto
          80 80 -85 85 -90 -90 rlineto
          -31 13 -34 7 -33 -33 -34 -7 -31 hflex1
          -90 90 -85 -85 79 -80 rlineto
          -20 -29 -12 -36 -42 vvcurveto
          -43 12 -36 21 -30 vhcurveto
          -80 -80 rlineto
          199 189 rmoveto
          52 32 32 42 42 32 -32 -52 -52 -32 -32 -42 -42 -32 32 52 vhcurveto
          endchar
        </CharString>
        <CharString name="d">
          -12 23 callsubr
          146 172 hintmask 01011110
          42 250 rmoveto
          hintmask 10011110
          15 callsubr
          hintmask 01011110
          -27 callsubr
          hintmask 10101110
          176 2 rmoveto
          88 38 32 42 24 22 -6 -18 20 vhcurveto
          -184 vlineto
          -28 -19 -21 -8 -28 hhcurveto
          -49 -29 34 90 hvcurveto
          endchar
        </CharString>
        <CharString name="d.sups">
          252 96 29 callsubr
          125 425 rmoveto
          -107 55 -66 85 29 33 16 22 23 vhcurveto
          3 hlineto
          8 -30 rlineto
          97 459 -119 -106 hlineto
          4 -47 rlineto
          19 -20 -22 14 13 callsubr
        </CharString>
        <CharString name="dagger">
          413 126 hstem
          237 126 vstem
          232 -80 rmoveto
          136 hlineto
          -10 498 168 -10 45 callsubr
          10 rlineto
          endchar
        </CharString>
        <CharString name="daggerdbl">
          93 124 198 124 hstem
          237 126 vstem
          74 88 rmoveto
          168 10 -10 -178 rlineto
          136 hlineto
          -10 178 168 -10 rlineto
          136 vlineto
          -168 -14 10 106 -10 106 168 -14 45 callsubr
          14 -10 -106 10 -106 -168 14 rlineto
          endchar
        </CharString>
        <CharString name="dcaron">
          -12 140 -107 -21 372 140 0 -20 56 148 -148 226 hstemhm
          15 176 146 172 32 104 hintmask 0101101110000000
          15 250 rmoveto
          hintmask 1001101110000000
          15 callsubr
          hintmask 0101101110000000
          -27 callsubr
          hintmask 1010101110000000
          176 2 rmoveto
          88 38 32 42 24 22 -6 -18 20 vhcurveto
          -184 vlineto
          -28 -19 -21 -8 -28 hhcurveto
          -49 -29 34 90 hvcurveto
          425 296 rmoveto
          hintmask 0101011110000000
          39 callsubr
          hintmask 0101101110000000
          6 -226 rlineto
          endchar
        </CharString>
        <CharString name="dcroat">
          -12 140 -107 -21 352 140 58 80 -80 146 -142.5 142.5 -30 callsubr
          hintmask 10110011
          364 164 rmoveto
          -28 -19 -21 -8 -28 hhcurveto
          -49 -29 31 83 81 38 29 45 21 22 -7 -17 20 hvcurveto
          236 302 rmoveto
          -64 hlineto
          hintmask 01101011
          66 -172 vlineto
          hintmask 01110011
          -66 -148 vlineto
          hintmask 10101011
          -80 148 -36 vlineto
          6 -72 rlineto
          30 -31 -33 20 -55 hhcurveto
          -105 -104 -94 -158 -156 82 -96 127 45 49 24 34 35 hvcurveto
          4 hlineto
          hintmask 01100111
          12 -46 rlineto
          140 551 hlineto
          64 5 rlineto
          endchar
        </CharString>
        <CharString name="degree">
          386 80 140 80 hstem
          149 88 128 88 vstem
          301 386 rmoveto
          86 66 64 86 86 -66 64 -86 -86 -66 -64 -86 -86 66 -64 86 hvcurveto
          80 vmoveto
          -38 -26 28 42 42 26 28 38 38 26 -28 -42 -42 -26 -28 -38 hvcurveto
          endchar
        </CharString>
        <CharString name="dieresis">
          564 176 hstem
          98 89 callsubr
          vstem
          186 564 rmoveto
          -92 callgsubr
          228 hmoveto
          -92 callgsubr
          endchar
        </CharString>
        <CharString name="divide">
          64 172 34 120 34 172 hstem
          208 184 vstem
          300 424 rmoveto
          52 40 36 50 50 -40 36 -52 -52 -40 -36 -50 -50 40 -36 52 hvcurveto
          -92 -274 rmoveto
          -50 40 -36 52 52 40 36 50 50 -40 36 -52 -52 -40 -36 -50 vhcurveto
          -144 120 rmoveto
          42 callgsubr
          endchar
        </CharString>
        <CharString name="dollar">
          -110 854 -264 264 hstemhm
          82 164 1 112 5 164 hintmask 10010000
          520 530 rmoveto
          -42 43 -51 31 -68 11 rrcurveto
          hintmask 01010000
          129 -112 -131 vlineto
          hintmask 01101000
          -103 -18 -62 -62 -87 -188 282 12 -68 vvcurveto
          -20 -19 -10 -37 -58 -52 20 40 -68 vhcurveto
          -74 -116 rlineto
          hintmask 10010000
          52 -45 76 -27 63 -8 rrcurveto
          -146 112 151 vlineto
          hintmask 01101000
          112 21 57 69 83 182 -282 -4 56 vvcurveto
          21 18 11 36 51 37 -16 -32 48 vhcurveto
          endchar
        </CharString>
        <CharString name="dollar.a">
          480 138 hstem
          72 164 138 164 vstem
          339 237 rmoveto
          21 -10 14 -11 -14 vvcurveto
          -18 -16 -10 -31 -2 vhcurveto
          -56 246 rmoveto
          -21 9 -14 9 12 vvcurveto
          19 15 11 31 2 vhcurveto
          99 -19 rmoveto
          18 -7 17 -10 20 -12 84 98 rcurveline
          -31 31 -37 25 -45 15 26 137 rcurveline
          -100 12 -25 -132 rlineto
          -2 -3 0 -2 hhcurveto
          -141 -88 -68 -104 -102 90 -44 81 -28 hvcurveto
          -15 -85 -31 10 -31 15 -36 20 rlinecurve
          -74 -116 40 -33 54 -24 51 -13 rlinecurve
          -28 -150 100 -12 28 150 rlineto
          157 3 80 79 98 vvcurveto
          99 -89 44 -82 29 vhcurveto
          endchar
        </CharString>
        <CharString name="dong">
          0 84 34 112 144 114 32 84 -84 126 hstemhm
          84 144 130 140 hintmask 11101110
          98 hmoveto
          434 84 -434 hlineto
          260 176 rmoveto
          -22 -21 -17 -8 -28 hhcurveto
          -38 -26 22 55 45 35 22 33 24 19 -6 -14 19 hvcurveto
          hintmask 11110110
          140 250 rmoveto
          hintmask 11101110
          42 -140 vlineto
          hintmask 11110110
          -42 -154 vlineto
          hintmask 11101110
          -84 154 -8 vlineto
          4 -60 rlineto
          24 -29 -26 12 -47 hhcurveto
          -85 -91 -66 -114 -122 68 -68 104 44 41 16 28 29 hvcurveto
          2 hlineto
          10 -34 rlineto
          116 392 hlineto
          hintmask 11110110
          71 6 rlineto
          78 vlineto
          endchar
        </CharString>
        <CharString name="dotaccent">
          562 162 callgsubr
          562 -106 callgsubr
        </CharString>
        <CharString name="dotlessi">
          44 callgsubr
          hstem
          264 172 vstem
          -66 callgsubr
          endchar
        </CharString>
        <CharString name="e">
          -12 -49 callgsubr
          hstem
          394 156 vstem
          -105 callsubr
          endchar
        </CharString>
        <CharString name="e.sups">
          252 89 51 71 47 89 -66 callsubr
          endchar
        </CharString>
        <CharString name="eacute">
          1 callsubr
          174 hstem
          394 156 vstem
          -105 callsubr
          92 438 -54 callgsubr
        </CharString>
        <CharString name="eacute.sups">
          252 89 51 71 47 89 40 116 -66 callsubr
          65 292 rmoveto
          -121 hlineto
          -59 -116 rlineto
          86 hlineto
          endchar
        </CharString>
        <CharString name="ebreve">
          1 callsubr
          92 hstemhm
          158 94 120 94 -72 156 hintmask 11111100
          50 250 rmoveto
          -166 122 -96 158 62 78 20 38 60 vhcurveto
          -56 102 rlineto
          -20 -44 -36 -10 -40 hhcurveto
          -61 -55 18 62 -12 hvcurveto
          hintmask 11111010
          317 hlineto
          2 12 5 30 30 vvcurveto
          134 -80 108 -158 vhcurveto
          hintmask 11111100
          -134 -128 27 callsubr
          174 60 rmoveto
          hintmask 11111010
          52 12 37 20 43 hhcurveto
          58 20 -32 -40 hvcurveto
          -82 264 rmoveto
          hintmask 11111100
          103 49 76 88 115 callsubr
          -42 -5 -18 -30 -37 hhcurveto
          -37 -18 30 42 -5 hvcurveto
          -94 hlineto
          hintmask 11111010
          -88 2 49 -76 103 hhcurveto
          endchar
        </CharString>
        <CharString name="ecaron">
          1 callsubr
          174 hstem
          394 156 vstem
          -105 callsubr
          -154 264 -92 callsubr
        </CharString>
        <CharString name="ecircumflex">
          1 callsubr
          174 hstem
          394 156 vstem
          -105 callsubr
          -256 264 -95 callsubr
          endchar
        </CharString>
        <CharString name="edieresis">
          -12 -49 callgsubr
          52 176 hstemhm
          109 89 callsubr
          -119 156 hintmask 11101100
          50 250 rmoveto
          -166 122 -96 158 62 78 20 38 60 vhcurveto
          -56 102 rlineto
          -20 -44 -36 -10 -40 hhcurveto
          -61 -55 18 62 -12 hvcurveto
          hintmask 11101010
          317 hlineto
          2 12 5 30 30 vvcurveto
          134 -80 108 -158 vhcurveto
          hintmask 11101100
          -134 -128 27 callsubr
          174 60 rmoveto
          hintmask 11111010
          52 12 37 20 43 hhcurveto
          58 20 -32 -40 hvcurveto
          -197 254 rmoveto
          -92 callgsubr
          hintmask 11111100
          228 hmoveto
          -92 callgsubr
          endchar
        </CharString>
        <CharString name="edotaccent">
          -12 -49 callgsubr
          50 202 123 callsubr
          hintmask 11100100
          -105 callsubr
          hintmask 11111000
          -82 252 -106 callgsubr
        </CharString>
        <CharString name="egrave">
          1 callsubr
          174 hstem
          394 156 vstem
          -105 callsubr
          -118 264 -45 callsubr
        </CharString>
        <CharString name="egrave.sups">
          252 89 51 71 47 89 40 116 -66 callsubr
          -81 176 rmoveto
          86 hlineto
          -59 116 rlineto
          -120 hlineto
          endchar
        </CharString>
        <CharString name="eight">
          -63 callsubr
        </CharString>
        <CharString name="eight.dnom">
          -12 -12 callgsubr
          90 -93 callgsubr
        </CharString>
        <CharString name="eight.numr">
          308 -12 callgsubr
          410 -93 callgsubr
        </CharString>
        <CharString name="eight.onum">
          -63 callsubr
        </CharString>
        <CharString name="eight.subs">
          -182 -12 callgsubr
          -80 -93 callgsubr
        </CharString>
        <CharString name="eight.sups">
          428 -12 callgsubr
          530 -93 callgsubr
        </CharString>
        <CharString name="ellipsis">
          -12 208 hstem
          -13 200 13 200 13 200 vstem
          -13 92 rmoveto
          24 callgsubr
          213 hmoveto
          24 callgsubr
          213 hmoveto
          24 callgsubr
          endchar
        </CharString>
        <CharString name="emacron">
          -12 -49 callgsubr
          76 108 hstemhm
          168 288 -62 156 hintmask 11110100
          -105 callsubr
          hintmask 11111000
          -226 278 -29 callgsubr
          endchar
        </CharString>
        <CharString name="emdash">
          65 callsubr
        </CharString>
        <CharString name="endash">
          65 callgsubr
        </CharString>
        <CharString name="eogonek">
          108 callgsubr
          164 -49 callgsubr
          hstemhm
          312 112 -30 156 hintmask 01111100
          474 148 rmoveto
          -20 -44 -36 -10 -40 hhcurveto
          -61 -55 18 62 -12 hvcurveto
          hintmask 01111010
          317 hlineto
          2 12 5 30 30 vvcurveto
          134 -80 108 -158 -134 -128 -98 -164 vhcurveto
          hintmask 10111100
          -166 122 -96 158 11 6 0 2 19 vhcurveto
          -25 -22 -29 -38 -48 vvcurveto
          -62 48 -32 62 vhcurveto
          hintmask 01111100
          90 callgsubr
          hvcurveto
          hintmask 10111100
          -34 76 rlineto
          -6 -9 -12 -6 -12 hhcurveto
          -23 -18 11 23 38 18 26 88 60 hvcurveto
          -306 264 rmoveto
          hintmask 01111010
          52 12 37 20 43 hhcurveto
          58 20 -32 -40 hvcurveto
          endchar
        </CharString>
        <CharString name="equal">
          150 120 120 120 hstem
          64 472 vstem
          64 390 rmoveto
          42 callgsubr
          -360 vmoveto
          42 callgsubr
          endchar
        </CharString>
        <CharString name="estimated">
          -12 20 308 18 306 20 hstem
          26 130 290 128 vstem
          164 68 rmoveto
          -4 6 -4 6 8 vvcurveto
          224 vlineto
          2 2 2 2 vhcurveto
          414 hlineto
          2 0 4 2 vvcurveto
          186 -123 150 -151 -151 -123 -150 -186 -186 123 -150 151 90 78 52 80 54 vhcurveto
          -38 hlineto
          -68 -46 -66 -44 -70 hhcurveto
          -54 -50 22 38 -34 hvcurveto
          -4 266 rmoveto
          -2 -2 2 4 hvcurveto
          220 vlineto
          7 4 9 4 6 vhcurveto
          36 34 50 22 54 hhcurveto
          50 50 -20 -34 34 hvcurveto
          6 -6 4 -8 -8 vvcurveto
          -224 vlineto
          -4 -2 -2 -4 vhcurveto
          endchar
        </CharString>
        <CharString name="eth">
          -12 138 206 126 hstem
          42 156 198 160 vstem
          300 126 rmoveto
          -56 -46 34 70 75 41 27 58 38 31 -12 -31 29 hvcurveto
          1 -9 0 -10 -10 vvcurveto
          -94 -42 -40 -54 vhcurveto
          222 532 rmoveto
          -44 75 -137 -69 -45 31 -49 26 -50 23 rlinecurve
          -74 -104 31 -14 27 -15 25 -15 rlinecurve
          -114 -57 44 -74 149 75 40 -36 29 -40 18 -49 rlinecurve
          31 -29 -42 12 -41 hhcurveto
          -110 -108 -82 -146 -148 114 -94 138 166 96 120 162 148 -57 106 -84 80 hvcurveto
          endchar
        </CharString>
        <CharString name="exclam">
          -12 220 -199 -21 141 callsubr
          244 264 rmoveto
          hintmask 01010000
          112 hlineto
          24 258 6 148 rlineto
          -172 hlineto
          6 -148 rlineto
          hintmask 10100000
          -30 -423 78 callgsubr
        </CharString>
        <CharString name="exclamdown">
          292 220 0 -20 141 callsubr
          356 236 rmoveto
          hintmask 01010000
          -112 hlineto
          -24 -258 -6 -148 rlineto
          172 hlineto
          -6 148 rlineto
          hintmask 10100000
          30 423 79 callgsubr
        </CharString>
        <CharString name="f">
          151 callsubr
          134 hstem
          202 172 vstem
          588 682 rmoveto
          12 -40 -54 14 -60 hhcurveto
          -164 -68 -94 -112 hvcurveto
          -2 vlineto
          -128 -6 rlineto
          -128 128 -366 172 366 158 134 -158 2 vlineto
          53 28 19 54 36 36 -8 -10 28 vhcurveto
          endchar
        </CharString>
        <CharString name="f.sups">
          499 92 44 92 hstem
          249 119 vstem
          510 709 rmoveto
          8 -27 -36 10 -41 hhcurveto
          -111 -46 -59 -74 hvcurveto
          -3 vlineto
          -72 -4 rlineto
          -88 72 -239 119 239 104 92 -104 3 vlineto
          28 19 13 34 24 25 -6 -6 18 vhcurveto
          endchar
        </CharString>
        <CharString name="fi">
          100 callsubr
          130.5 -130.5 134 62 206 -194 134 0 -20 63 callsubr
          176 172 hintmask 11001011
          56 499 rmoveto
          -66 -5 rlineto
          hintmask 10101011
          46 callsubr
          hintmask 10100111
          30 126 rlineto
          hintmask 10101011
          130 callsubr
          hintmask 10110011
          548 159 rmoveto
          60 -48 43 -67 -67 -48 -43 -60 -60 48 -43 67 67 48 43 60 vhcurveto
          -200 -665 rmoveto
          172 500 -172 hlineto
          endchar
        </CharString>
        <CharString name="figuredash">
          65 callgsubr
        </CharString>
        <CharString name="five">
          -12 138 164 118 82 144 hstem
          100 152 112 172 vstem
          42 78 rmoveto
          148 callgsubr
          82 142 134 -103 62 -115 -25 -19 -2 -8 -26 hvcurveto
          8 92 rlineto
          252 144 -400 hlineto
          -16 -326 148 callsubr
          -28 -54 -56 -42 -26 -66 -50 -47 26 34 -41 hvcurveto
          endchar
        </CharString>
        <CharString name="five.dnom">
          -12 -16 callgsubr
          25 -82 callgsubr
        </CharString>
        <CharString name="five.numr">
          308 -16 callgsubr
          345 -82 callgsubr
        </CharString>
        <CharString name="five.onum">
          -92 138 -27 -21 228 118 92 144 hstemhm
          100 152 112 172 hintmask 01111100
          42 -2 rmoveto
          hintmask 10111100
          148 callgsubr
          86 148 141 -103 61 -115 -25 -19 0 -10 -26 hvcurveto
          8 102 rlineto
          252 144 -400 hlineto
          -16 -336 148 callsubr
          -27 -61 -63 -42 -29 -66 -50 -47 26 34 -41 hvcurveto
          endchar
        </CharString>
        <CharString name="five.subs">
          -182 -16 callgsubr
          -145 -82 callgsubr
        </CharString>
        <CharString name="five.sups">
          428 -16 callgsubr
          465 -82 callgsubr
        </CharString>
        <CharString name="fiveeighths">
          -12 77 182 79 -18 90 54 64 18 100 hstemhm
          73.5 229.5 -107 120 -28 -15 callgsubr
          hintmask 1010101000100000
          38 345 rmoveto
          -35 52 47 -2 41 hhcurveto
          80 58 51 61 hvcurveto
          hintmask 0001001000000000
          60 -42 36 -66 vhcurveto
          hintmask 0001010000000000
          -12 -18 -2 -2 -8 hvcurveto
          hintmask 0000110000000000
          2 22 rlineto
          131 100 -223 hlineto
          hintmask 0001010000000000
          -13 -163 rlineto
          hintmask 0011001000000000
          48 -32 rlineto
          9 17 12 4 18 hhcurveto
          18 16 -8 -20 -18 -16 -8 -19 -25 -32 -70 callsubr
        </CharString>
        <CharString name="fl">
          -12 138 -117 -21 33 -21 366 130.5 -130.5 134 74 134 -17 callsubr
          hstemhm
          60 172 158 172 hintmask 0011010011000000
          60 499 rmoveto
          -66 -5 rlineto
          hintmask 0010110011000000
          46 callsubr
          hintmask 0010100111000000
          30 126 rlineto
          hintmask 1000110011000000
          130 callsubr
          548 -378 rmoveto
          -2 -8 -4 0 -6 hhcurveto
          -12 -16 10 34 hvcurveto
          hintmask 0100101011000000
          526 -172 -520 vlineto
          -112 38 -76 116 38 28 6 8 18 vhcurveto
          endchar
        </CharString>
        <CharString name="four">
          21 -21 142 130 222 157 callsubr
          272 rmoveto
          66 108 23 38 27 135 callsubr
          -72 vlineto
          233 hmoveto
          -73 362 -212 hlineto
          -245 -372 rlineto
          -120 297 -142 160 142 73 vlineto
          endchar
        </CharString>
        <CharString name="four.dnom">
          56 28 callsubr
          131 -49 callsubr
        </CharString>
        <CharString name="four.numr">
          376 28 callsubr
          451 -49 callsubr
        </CharString>
        <CharString name="four.onum">
          78 130 232 157 callsubr
          208 rmoveto
          68 118 23 38 25 135 callsubr
          -82 vlineto
          233 hmoveto
          -73 372 -212 hlineto
          -245 -382 rlineto
          -120 297 -158 160 158 73 vlineto
          endchar
        </CharString>
        <CharString name="four.subs">
          -114 28 callsubr
          -39 -49 callsubr
        </CharString>
        <CharString name="four.sups">
          496 28 callsubr
          571 -49 callsubr
        </CharString>
        <CharString name="fraction">
          26 598 hstem
          12 576 vstem
          98 26 -90 callsubr
          endchar
        </CharString>
        <CharString name="g">
          -38 callsubr
          -23 callsubr
          140 150 -82 163 hintmask 1111010001000000
          -98 callgsubr
          hintmask 1111000110000000
          -85 hlineto
          -56 -22 8 22 14 4 6 12 9 hvcurveto
          -5 24 21 -2 18 hhcurveto
          119 92 48 118 20 -7 20 -7 12 hvcurveto
          90 124 -202 hlineto
          hintmask 1110101010000000
          8 -25 -30 4 -30 hhcurveto
          -116 -105 -58 -124 -58 30 -46 38 -24 hvcurveto
          -4 vlineto
          hintmask 1111000110000000
          -35 -24 -25 -36 -34 vvcurveto
          -42 22 -26 28 -18 vhcurveto
          -4 vlineto
          hintmask 1111010001000000
          -50 -24 -26 -31 -41 vvcurveto
          hintmask 1110101010000000
          239 342 rmoveto
          -33 -27 22 48 46 27 22 33 33 28 -22 -46 -48 -28 -22 -33 hvcurveto
          endchar
        </CharString>
        <CharString name="g.a">
          -60 callsubr
        </CharString>
        <CharString name="g.supa">
          139 91 41 94 138 96 hstem
          125 121 93 119 vstem
          184 252 rmoveto
          -39 -76 rlineto
          -26 40 56 -11 34 hhcurveto
          116 67 46 87 hvcurveto
          319 -95 vlineto
          -9 -31 rlineto
          -2 hlineto
          28 -24 -30 11 -31 hhcurveto
          -68 -74 -67 -100 -92 56 -69 83 28 29 10 18 21 hvcurveto
          -3 -31 rlineto
          -21 -2 -19 -17 -43 hhcurveto
          -25 -36 7 15 -30 hvcurveto
          112 113 rmoveto
          -28 -22 23 45 49 24 21 23 14 20 -4 -11 12 hvcurveto
          -99 vlineto
          -19 -12 -14 -5 -17 hhcurveto
          endchar
        </CharString>
        <CharString name="g.sups">
          125 72 46 89 32 70 72 85 -70 78 hstemhm
          127 96 -84 111 -106 93 90 104 -59 113 hintmask 1111010001000000
          223 226 rmoveto
          8 5 6 10 7 vhcurveto
          -2 12 13 -2 26 hhcurveto
          32 hlineto
          32 19 -2 -16 -17 -32 -11 -43 -43 -31 8 21 hvcurveto
          -96 -20 rmoveto
          -59 69 -22 82 126 81 48 73 61 -52 25 -89 vhcurveto
          hintmask 1111000110000000
          -56 hlineto
          -37 -14 5 14 9 2 3 8 6 hvcurveto
          -3 16 13 -2 12 hhcurveto
          81 62 31 79 12 -4 13 -4 7 hvcurveto
          58 85 -135 hlineto
          5 -17 -21 3 -20 hhcurveto
          hintmask 1111001010000000
          -78 -71 -38 -83 -38 20 -31 26 -16 hvcurveto
          -2 vlineto
          hintmask 1111000110000000
          -24 -16 -17 -24 -22 vvcurveto
          -28 15 -17 19 -12 vhcurveto
          -3 vlineto
          hintmask 1111010001000000
          -34 -16 -17 -20 -27 vvcurveto
          hintmask 1110101010000000
          161 228 rmoveto
          -21 -17 13 31 29 17 14 21 21 18 -14 -29 -31 -18 -13 -21 hvcurveto
          endchar
        </CharString>
        <CharString name="gbreve">
          -38 callsubr
          62 92 -23 callsubr
          -55 94 101 150 -131 94 -45 163 hintmask 1111011000001000
          -98 callgsubr
          hintmask 1111010010100000
          -85 hlineto
          -56 -22 8 22 14 4 6 12 9 hvcurveto
          -5 24 21 -2 18 hhcurveto
          119 92 48 118 20 -7 20 -7 12 hvcurveto
          90 124 -202 hlineto
          hintmask 1110110100100000
          8 -25 -30 4 -30 hhcurveto
          -116 -105 -58 -124 -58 30 -46 38 -24 hvcurveto
          -4 vlineto
          hintmask 1111010010010000
          -35 -24 -25 -36 -34 vvcurveto
          -42 22 -26 28 -18 vhcurveto
          -4 vlineto
          hintmask 1111011000001000
          -50 -24 -26 -31 -41 vvcurveto
          hintmask 1110110100100000
          239 342 rmoveto
          -33 -27 22 48 46 27 22 33 33 28 -22 -46 -48 -28 -22 -33 hvcurveto
          hintmask 1111010001010000
          20 314 -76 callsubr
        </CharString>
        <CharString name="gbreve.a">
          -47 callsubr
          82 92 hstemhm
          42 174 -60 94 114 172 -166 94 -94 callgsubr
          hintmask 1100110101000000
          14 420 -76 callsubr
        </CharString>
        <CharString name="gcaron">
          -38 callsubr
          62 174 -100 callsubr
          -52 314 -92 callsubr
        </CharString>
        <CharString name="gcaron.a">
          -60 callgsubr
          -58 420 -92 callsubr
        </CharString>
        <CharString name="gcircumflex">
          -38 callsubr
          62 174 -100 callsubr
          -154 314 -95 callsubr
          endchar
        </CharString>
        <CharString name="gcircumflex.a">
          -60 callgsubr
          -160 420 -95 callsubr
          endchar
        </CharString>
        <CharString name="gdotaccent">
          -38 callsubr
          50 202 -23 callsubr
          -11 220 -69 -96 callgsubr
          hintmask 1111010001000000
          20 302 -106 callgsubr
        </CharString>
        <CharString name="gdotaccent.a">
          -47 callsubr
          70 202 hstemhm
          42 174 -16 220 -56 172 -94 callgsubr
          hintmask 1100110100000000
          14 408 -106 callgsubr
        </CharString>
        <CharString name="germandbls">
          -12 126 -114 22 552 134 hstemhm
          50 172 56 158 -109 159 -70 158 hintmask 01110100
          50 hmoveto
          172 478 hlineto
          56 18 40 47 24 16 -23 -29 vhcurveto
          hintmask 01111000
          -74 -49 -28 -76 vvcurveto
          hintmask 10110010
          -128 138 -12 -60 vvcurveto
          -20 -13 -10 -14 -22 -25 7 17 -28 vhcurveto
          hintmask 01110100
          -56 -116 rlineto
          hintmask 10110010
          -22 46 37 -12 54 hhcurveto
          120 59 76 94 hvcurveto
          hintmask 01111000
          140 -138 14 54 vvcurveto
          hintmask 01110100
          44 50 28 94 vvcurveto
          88 -61 88 -138 -163 -74 -98 -124 vhcurveto
          endchar
        </CharString>
        <CharString name="grave">
          -3 callsubr
        </CharString>
        <CharString name="greater">
          24 616 hstem
          346 140 vstem
          486 390 rmoveto
          -392 250 rlineto
          -154 vlineto
          252 -152 rlineto
          -4 vlineto
          -252 -152 rlineto
          -154 vlineto
          392 250 rlineto
          endchar
        </CharString>
        <CharString name="greaterequal">
          0 120 hstemhm
          64 472 -174 174 hintmask 11000000
          64 hmoveto
          42 callgsubr
          hintmask 10100000
          472 312 rmoveto
          -472 138 rlineto
          -140 vlineto
          158 -36 140 -30 rlineto
          -4 vlineto
          -140 -30 -158 -36 rlineto
          -140 vlineto
          472 138 rlineto
          endchar
        </CharString>
        <CharString name="guillemotleft">
          14 476 hstem
          26 530 vstem
          204 14 11 callsubr
          458 -152 11 callsubr
          endchar
        </CharString>
        <CharString name="guillemotright">
          14 476 hstem
          44 530 vstem
          44 78 9 callgsubr
          152 -174 9 callgsubr
          endchar
        </CharString>
        <CharString name="guilsinglleft">
          14 476 hstem
          166 250 vstem
          344 14 11 callsubr
          endchar
        </CharString>
        <CharString name="guilsinglright">
          14 476 hstem
          184 250 vstem
          184 78 9 callgsubr
          endchar
        </CharString>
        <CharString name="h">
          21 125 callgsubr
          hstem
          64 172 138 172 vstem
          -59 callsubr
          endchar
        </CharString>
        <CharString name="h.sups">
          499 100 hstem
          149 119 85 119 vstem
          152 callgsubr
          216 hlineto
          82 callgsubr
          -31 54 -75 -48 -35 -23 -20 -21 vhcurveto
          6 57 rlineto
          106 -119 vlineto
          endchar
        </CharString>
        <CharString name="hbar">
          21 -21 346 146 58 76.5 -76.5 80 -80 146 80 callgsubr
          138 172 hintmask 11001110
          236 514 rmoveto
          36 170 vlineto
          hintmask 11010110
          80 -170 vlineto
          hintmask 11001110
          66 -172 vlineto
          hintmask 11100110
          -67 vlineto
          -64 -5 rlineto
          hintmask 11001110
          -74 64 -550 34 callsubr
          24 26 22 14 32 hhcurveto
          44 14 -24 -56 hvcurveto
          -266 172 288 vlineto
          124 -48 80 -110 -74 -54 -34 -32 -33 vhcurveto
          endchar
        </CharString>
        <CharString name="hcircumflex">
          21 125 callgsubr
          74 124 hstem
          64 172 138 172 vstem
          -59 callsubr
          37 54 -90 callgsubr
          endchar
        </CharString>
        <CharString name="hungarumlaut">
          574 154 hstem
          164 382 vstem
          164 574 -23 callgsubr
        </CharString>
        <CharString name="hyphen">
          9 callsubr
        </CharString>
        <CharString name="hyphen.a">
          53 callsubr
        </CharString>
        <CharString name="i">
          44 callgsubr
          62 202 hstemhm
          234 220 -190 172 81 callgsubr
          10 callsubr
          endchar
        </CharString>
        <CharString name="i.sups">
          499 92 39 137 hstemhm
          269 151 -134 119 hintmask 10010000
          167 499 rmoveto
          119 -239 119 331 -238 hlineto
          hintmask 11100000
          119 callsubr
          -31 -29 -40 -41 31 -27 44 hvcurveto
          endchar
        </CharString>
        <CharString name="iacute">
          151 callsubr
          174 hstem
          264 172 vstem
          -66 callgsubr
          444 248 -54 callgsubr
        </CharString>
        <CharString name="icircumflex">
          151 callsubr
          174 hstem
          264 172 vstem
          -66 callgsubr
          96 74 -95 callsubr
          endchar
        </CharString>
        <CharString name="idieresis">
          44 callgsubr
          64 176 hstemhm
          142 176 -54 172 -66 176 81 callgsubr
          156 64 rmoveto
          -92 callgsubr
          hintmask 11101000
          228 hmoveto
          hintmask 11100100
          52 36 38 50 50 -36 38 -52 hvcurveto
          hintmask 11101000
          -52 -36 -38 -50 -50 36 -38 52 hvcurveto
          endchar
        </CharString>
        <CharString name="igrave">
          151 callsubr
          174 hstem
          264 172 vstem
          -66 callgsubr
          234 74 -45 callsubr
        </CharString>
        <CharString name="imacron">
          44 callgsubr
          88 108 hstemhm
          200 288 -224 172 81 callgsubr
          126 88 -29 callgsubr
          endchar
        </CharString>
        <CharString name="infinity">
          110 158 -130 124 104 158 -108 124 hstemhm
          -17 124 386 124 hintmask 01011100
          130 138 rmoveto
          58 42 27 51 31 hvcurveto
          4 hlineto
          hintmask 10011100
          -86 54 50 -20 71 hhcurveto
          98 79 81 151 114 -76 84 -91 -66 -48 -24 -70 -47 hvcurveto
          -4 hlineto
          hintmask 10101100
          53 -30 -42 25 -60 hhcurveto
          -102 -68 -76 -134 hvcurveto
          hintmask 01011100
          -92 64 -84 83 vhcurveto
          hintmask 10011100
          205 216 rmoveto
          43 27 30 19 31 hhcurveto
          42 28 -28 -50 -37 -24 -33 -40 -43 -26 32 54 -25 hvcurveto
          hintmask 01101100
          -180 -92 rmoveto
          -30 -18 29 27 26 12 22 30 24 25 -15 -43 17 hvcurveto
          -34 -15 -21 -12 -24 hhcurveto
          endchar
        </CharString>
        <CharString name="integral">
          -158 128 694 128 hstemhm
          210 154 -118 154 hintmask 11010000
          148 -26 rmoveto
          -16 -124 rlineto
          -3 12 24 -5 25 hhcurveto
          173 34 109 145 hvcurveto
          hintmask 11100000
          172 -36 118 156 vvcurveto
          90 12 32 50 14 12 -1 -3 10 vhcurveto
          16 -15 callsubr
          3 -12 -24 5 -25 hhcurveto
          -173 -34 -109 -145 hvcurveto
          hintmask 11010000
          -172 36 -118 -156 vvcurveto
          -92 -12 -30 -50 -14 -12 1 3 -10 vhcurveto
          endchar
        </CharString>
        <CharString name="iogonek">
          108 callgsubr
          197 -21 366 134 62 202 hstemhm
          234 220 -206 114 -98 172 hintmask 01111001
          264 hmoveto
          hintmask 10111010
          50 hlineto
          -24 -17 -42 -42 -59 vvcurveto
          -62 50 -32 62 vhcurveto
          hintmask 01111001
          90 callgsubr
          hvcurveto
          hintmask 10111001
          35 callsubr
          hintmask 01111100
          80 196 -106 callgsubr
        </CharString>
        <CharString name="iogonek.d">
          108 callgsubr
          197 -21 366 134 hstemhm
          248 114 -98 172 hintmask 01110100
          264 hmoveto
          hintmask 10111000
          50 hlineto
          -24 -17 -42 -42 -59 vvcurveto
          -62 50 -32 62 vhcurveto
          hintmask 01110100
          90 callgsubr
          hvcurveto
          hintmask 10110100
          35 callsubr
          endchar
        </CharString>
        <CharString name="itilde">
          151 callsubr
          156 hstem
          264 172 vstem
          -66 callgsubr
          88 74 -100 callgsubr
        </CharString>
        <CharString name="j">
          114 callgsubr
          420 134 62 202 hstemhm
          234 220 -190 172 hintmask 11101000
          -32 callsubr
          hintmask 11110000
          10 callsubr
          endchar
        </CharString>
        <CharString name="j.sups">
          137 92 270 92 39 137 hstemhm
          256 152 -134 119 hintmask 11001000
          155 499 rmoveto
          119 -210 hlineto
          -44 -13 -16 -39 -15 -17 2 12 -26 vhcurveto
          -34 -83 rlineto
          -13 28 31 -10 41 hhcurveto
          128 35 75 81 hvcurveto
          298 -238 vlineto
          hintmask 11110000
          119 callsubr
          -32 -29 -40 -41 32 -27 44 hvcurveto
          endchar
        </CharString>
        <CharString name="jcircumflex">
          114 callgsubr
          420 134 74 174 hstem
          264 172 vstem
          -32 callsubr
          96 74 -95 callsubr
          endchar
        </CharString>
        <CharString name="k">
          21 35 callgsubr
          216 -20 hstem
          64 172 7 callsubr
          endchar
        </CharString>
        <CharString name="k.sups">
          260 331 -331 459 hstemhm
          149 119 hintmask 01100000
          152 callgsubr
          79 hlineto
          36 36 rlineto
          hintmask 10100000
          70 -115 rlineto
          129 hlineto
          -131 193 124 138 rlineto
          -129 hlineto
          -96 -111 rlineto
          -3 239 -119 hlineto
          endchar
        </CharString>
        <CharString name="kgreenlandic">
          21 35 callgsubr
          hstem
          64 172 153 callsubr
          120 hlineto
          59 58 109 -178 rlineto
          186 hlineto
          -197 292 185 208 rlineto
          -186 hlineto
          -152 -174 rlineto
          -4 174 -172 hlineto
          endchar
        </CharString>
        <CharString name="l">
          -12 106 callsubr
          hstem
          190 172 vstem
          54 562 rmoveto
          -88 callsubr
          endchar
        </CharString>
        <CharString name="l.sups">
          252 94 281 92 hstem
          240 119 vstem
          177 627 rmoveto
          63 -229 hlineto
          -86 39 -60 98 39 21 5 8 32 vhcurveto
          -19 91 rlineto
          -6 -16 -13 -4 -12 hhcurveto
          -30 -20 10 38 hvcurveto
          325 -182 vlineto
          endchar
        </CharString>
        <CharString name="lacute">
          -12 106 callsubr
          60 124 hstem
          190 172 vstem
          54 562 rmoveto
          -88 callsubr
          380 184 -67 callsubr
          endchar
        </CharString>
        <CharString name="lcaron">
          -12 138 422 226 -212 134 hstemhm
          190 172 54 104 hintmask 10111000
          54 562 rmoveto
          -88 callsubr
          hintmask 11011000
          437 -148 rmoveto
          39 callsubr
          6 -226 rlineto
          endchar
        </CharString>
        <CharString name="ldot">
          -12 138 128 202 106 134 hstem
          136 172 66 220 vstem
          562 vmoveto
          -88 callsubr
          484 -442 -106 callgsubr
        </CharString>
        <CharString name="less">
          24 616 hstem
          114 140 vstem
          114 274 rmoveto
          392 -250 rlineto
          154 vlineto
          -252 152 rlineto
          4 vlineto
          252 152 rlineto
          154 vlineto
          -392 -250 rlineto
          endchar
        </CharString>
        <CharString name="lessequal">
          0 120 hstemhm
          64 174 -174 472 hintmask 10100000
          64 hmoveto
          42 callgsubr
          hintmask 11000000
          172 vmoveto
          472 -138 rlineto
          140 vlineto
          -158 36 -140 30 rlineto
          4 vlineto
          140 30 158 36 rlineto
          140 vlineto
          -472 -138 rlineto
          endchar
        </CharString>
        <CharString name="lira">
          0 144 66 84 44 84 86 138 hstem
          131 163 vstem
          281 148 rmoveto
          21 22 13 19 7 21 rrcurveto
          140 84 -140 hlineto
          -3 15 -4 15 -5 14 rrcurveto
          152 84 -168 hlineto
          47 callsubr
          -4 0 -3 1 -4 hvcurveto
          -64 -5 rlineto
          -78 88 vlineto
          6 -15 5 -14 4 -15 rrcurveto
          -27 hlineto
          -76 -6 rlineto
          -78 104 vlineto
          -16 -49 -43 -36 -50 -19 rrcurveto
          163 callgsubr
        </CharString>
        <CharString name="logicalnot">
          270 120 hstem
          412 124 vstem
          64 270 rmoveto
          348 -180 124 300 -472 hlineto
          endchar
        </CharString>
        <CharString name="lozenge">
          -10 144 392 144 hstem
          70 460 vstem
          232 -10 rmoveto
          136 hlineto
          162 340 -162 340 rlineto
          -136 hlineto
          -162 -340 rlineto
          228 -196 rmoveto
          -50 116 -38 80 38 80 50 116 rlineto
          4 hlineto
          50 -116 38 -80 -38 -80 -50 -116 rlineto
          endchar
        </CharString>
        <CharString name="lslash">
          -12 106 callsubr
          hstem
          190 172 vstem
          509 140 rmoveto
          -10 -29 -22 -4 -21 hhcurveto
          -35 -40 16 58 hvcurveto
          139 vlineto
          143 77 rlineto
          136 vlineto
          -143 -77 rlineto
          221 -308 -134 136 -171 vlineto
          -109 -61 rlineto
          -136 vlineto
          109 61 rlineto
          -49 vlineto
          -130 68 -88 133 65 36 10 16 54 vhcurveto
          endchar
        </CharString>
        <CharString name="m">
          21 18 callsubr
          32 147 callsubr
          cntrmask 00001110
          hintmask 10011110
          26 hmoveto
          162 hlineto
          hintmask 11001110
          -14 callgsubr
          hintmask 10101110
          -12 61 rlineto
          -129 hlineto
          endchar
        </CharString>
        <CharString name="m.sups">
          260 339 -100 92 hstemhm
          109 112 29 92 28 113 hintmask 10110000
          109 260 rmoveto
          112 hlineto
          hintmask 01110000
          215 vlineto
          hintmask 01010000
          16 6 5 8 7 hhcurveto
          8 3 -5 -12 hvcurveto
          -222 92 215 vlineto
          hintmask 01111000
          16 5 6 8 8 hhcurveto
          7 2 -5 -12 hvcurveto
          -222 113 230 vlineto
          66 -28 43 -47 -38 -25 -26 -27 -9 vhcurveto
          34 -7 -22 19 -27 hhcurveto
          -39 -20 -23 -25 -12 hvcurveto
          -2 hlineto
          -9 40 rlineto
          -89 hlineto
          endchar
        </CharString>
        <CharString name="macron">
          4 callgsubr
        </CharString>
        <CharString name="minus">
          9 callsubr
        </CharString>
        <CharString name="multiply">
          106 446 hstem
          77 446 vstem
          162 106 rmoveto
          138 138 138 -138 85 85 -138 138 138 138 -85 85 -138 -138 -138 138 -85 -85 138 -138 -138 -138 rlineto
          endchar
        </CharString>
        <CharString name="n">
          21 18 callsubr
          80 callgsubr
          138 172 hintmask 10111000
          64 hmoveto
          172 hlineto
          hintmask 11011000
          -86 callsubr
          hintmask 10111000
          59 callsubr
          endchar
        </CharString>
        <CharString name="n.sups">
          260 331 -92 100 hstemhm
          149 119 85 119 hintmask 10110000
          152 callgsubr
          hlineto
          hintmask 01110000
          216 vlineto
          82 callgsubr
          -32 54 -74 -49 -34 -23 -24 -26 vhcurveto
          -3 hlineto
          -8 39 rlineto
          -97 hlineto
          endchar
        </CharString>
        <CharString name="nacute">
          21 18 callsubr
          94 174 80 callgsubr
          138 172 hintmask 10111100
          64 hmoveto
          172 hlineto
          hintmask 11011100
          -86 callsubr
          hintmask 10111100
          59 callsubr
          424 248 -54 callgsubr
        </CharString>
        <CharString name="napostrophe">
          44 callgsubr
          -13 209 -196 -20 32 -20 204 -20 hstemhm
          60 115 49 172 94 172 hintmask 1000111110000000
          -12 267 2 callsubr
          110 -45 65 -83 -60 -44 -43 -67 vhcurveto
          hintmask 1010001110000000
          -60 41 -39 58 6 6 1 1 6 vhcurveto
          -4 -61 -38 -42 -73 -30 rrcurveto
          hintmask 1000111110000000
          431 84 rmoveto
          hintmask 1001011110000000
          -12 60 rlineto
          -140 -500 172 hlineto
          hintmask 1100011110000000
          328 vlineto
          24 20 12 14 24 hhcurveto
          28 10 -24 -56 hvcurveto
          -286 34 callsubr
          hintmask 1000111110000000
          124 -42 80 -97 -64 -43 -34 -38 -36 vhcurveto
          endchar
        </CharString>
        <CharString name="nbspace.frac">
          endchar
        </CharString>
        <CharString name="ncaron">
          21 18 callsubr
          94 174 80 callgsubr
          138 172 hintmask 10111100
          64 hmoveto
          172 hlineto
          hintmask 11011100
          -86 callsubr
          hintmask 10111100
          59 callsubr
          178 74 -92 callsubr
        </CharString>
        <CharString name="nine">
          -12 138 108 120 164 128 hstem
          48 156 183 157 vstem
          282 354 rmoveto
          -44 -34 20 56 67 41 21 41 34 45 -20 -90 17 hvcurveto
          -39 -33 -34 -15 -33 hhcurveto
          -226 -286 rmoveto
          158 callgsubr
          110 230 230 -135 88 -127 -125 -109 -80 -136 -136 88 -60 108 41 59 23 42 43 hvcurveto
          -129 -7 -60 -44 -68 hhcurveto
          -40 -42 22 22 -24 hvcurveto
          endchar
        </CharString>
        <CharString name="nine.dnom">
          -12 7 callgsubr
          212 -81 callsubr
        </CharString>
        <CharString name="nine.numr">
          308 7 callgsubr
          532 -81 callsubr
        </CharString>
        <CharString name="nine.onum">
          -92 138 -37 -21 168 120 188 128 hstemhm
          48 156 182 158 hintmask 01111100
          282 276 rmoveto
          -44 -34 29 63 75 41 21 41 37 48 -24 -106 14 hvcurveto
          -42 -34 -35 -16 -34 hhcurveto
          -226 -288 rmoveto
          hintmask 10111100
          158 callgsubr
          115 251 230 -135 88 -127 -125 -109 -82 -142 -143 88 -69 108 40 58 23 41 44 hvcurveto
          -133 -12 -57 -41 -65 hhcurveto
          -40 -42 22 22 -24 hvcurveto
          endchar
        </CharString>
        <CharString name="nine.subs">
          -182 7 callgsubr
          42 -81 callsubr
        </CharString>
        <CharString name="nine.sups">
          428 7 callgsubr
          652 -81 callsubr
        </CharString>
        <CharString name="notequal">
          150 120 120 120 hstem
          64 472 vstem
          78 30 rmoveto
          106 hlineto
          70 120 rlineto
          282 120 -216 hlineto
          66 120 rlineto
          150 120 -84 hlineto
          70 120 rlineto
          -106 hlineto
          -70 -120 rlineto
          -282 -120 216 hlineto
          -66 -120 rlineto
          -150 -120 84 hlineto
          endchar
        </CharString>
        <CharString name="ntilde">
          21 18 callsubr
          94 156 80 callgsubr
          138 172 hintmask 10111100
          64 hmoveto
          172 hlineto
          hintmask 11011100
          -86 callsubr
          hintmask 10111100
          59 callsubr
          68 74 -100 callgsubr
        </CharString>
        <CharString name="numbersign">
          21 -21 180 108 96 108 hstem
          154 98 92 98 vstem
          114 hmoveto
          98 hlineto
          22 180 rlineto
          92 hlineto
          -22 -180 rlineto
          98 hlineto
          22 180 rlineto
          96 108 -84 hlineto
          12 96 rlineto
          92 108 -78 146 callsubr
          -92 146 callsubr
          -90 -108 76 hlineto
          -12 -96 rlineto
          -84 -108 72 hlineto
          110 108 rmoveto
          12 96 rlineto
          92 hlineto
          -12 -96 rlineto
          endchar
        </CharString>
        <CharString name="o">
          -55 callgsubr
          hstem
          26 callsubr
          vstem
          -104 callgsubr
          endchar
        </CharString>
        <CharString name="o.sups">
          -14 callsubr
        </CharString>
        <CharString name="oacute">
          -29 callsubr
          174 hstem
          26 callsubr
          vstem
          -104 callgsubr
          256 498 -54 callgsubr
        </CharString>
        <CharString name="ocircumflex">
          -29 callsubr
          174 hstem
          26 callsubr
          vstem
          -104 callgsubr
          -92 324 -95 callsubr
          endchar
        </CharString>
        <CharString name="odieresis">
          -55 callgsubr
          52 176 -21 callsubr
          -120 89 callsubr
          -120 176 hintmask 11110010
          -104 callgsubr
          hintmask 11101100
          -32 314 rmoveto
          -92 callgsubr
          228 hmoveto
          -92 callgsubr
          endchar
        </CharString>
        <CharString name="oe">
          -12 134 -134 138 72 104 72 138 -130 130 hstemhm
          12 154 85 115 90 134 hintmask 01110111
          166 250 rmoveto
          76 13 48 33 26 13 -48 -76 -76 -13 -48 -26 -33 -13 48 76 vhcurveto
          -154 hmoveto
          -166 84 -96 102 58 34 22 42 29 vhcurveto
          -41 29 46 -23 47 hhcurveto
          39 56 16 32 40 hvcurveto
          hintmask 10110111
          -58 110 rlineto
          -18 -26 -20 -6 -24 159 callsubr
          4 22 2 16 30 vvcurveto
          134 -57 112 -102 -43 -44 -26 -48 -27 vhcurveto
          44 -23 -37 30 -55 hhcurveto
          hintmask 01110111
          -103 -87 -96 -166 hvcurveto
          354 52 rmoveto
          hintmask 01101111
          58 6 22 22 24 hhcurveto
          30 8 -36 -44 hvcurveto
          endchar
        </CharString>
        <CharString name="ogonek">
          -7 callgsubr
        </CharString>
        <CharString name="ograve">
          -29 callsubr
          174 hstem
          26 callsubr
          vstem
          -104 callgsubr
          46 324 -45 callsubr
        </CharString>
        <CharString name="ohorn">
          -55 callgsubr
          hstemhm
          26 callsubr
          -94 132 hintmask 11110000
          300 126 -31 callgsubr
          hintmask 11101000
          -78 callgsubr
          hintmask 11110000
          132 126 96 166 78 -28 62 -43 45 hvcurveto
          hintmask 11101000
          63 17 46 40 70 -62 callgsubr
        </CharString>
        <CharString name="ohungarumlaut">
          -29 callsubr
          154 hstem
          26 callsubr
          vstem
          -104 callgsubr
          -54 324 -23 callgsubr
        </CharString>
        <CharString name="omacron">
          -55 callgsubr
          76 108 -21 callsubr
          -62 288 -62 140 callsubr
          -104 callgsubr
          hintmask 11101000
          -62 338 -29 callgsubr
          endchar
        </CharString>
        <CharString name="one">
          0 138 328 120 callgsubr
          496 118 callgsubr
          -328 150 callgsubr
        </CharString>
        <CharString name="one.dnom">
          205 57 callsubr
          hmoveto
          -1 callgsubr
        </CharString>
        <CharString name="one.numr">
          525 57 callsubr
          320 rmoveto
          -1 callgsubr
        </CharString>
        <CharString name="one.onum">
          0 138 274 120 callgsubr
          442 118 callgsubr
          -274 150 callgsubr
        </CharString>
        <CharString name="one.subs">
          35 57 callsubr
          -170 rmoveto
          -1 callgsubr
        </CharString>
        <CharString name="one.sups">
          645 57 callsubr
          440 rmoveto
          -1 callgsubr
        </CharString>
        <CharString name="oneeighth">
          -12 77 182 79 199 71 callsubr
          16 -15 callgsubr
          hintmask 1101100000000000
          86 callgsubr
          hintmask 0010100000000000
          -34 -21 -21 -9 -54 -6 rrcurveto
          hintmask 0001100000000000
          -73 81 vlineto
          -50 -499 -90 callsubr
          hintmask 1000010010000000
          -51 callgsubr
        </CharString>
        <CharString name="onehalf">
          0 100 128 98 199 71 callsubr
          20 269 -128 118 hintmask 11011000
          86 callgsubr
          hintmask 11101000
          -34 -21 -21 -9 -54 -6 rrcurveto
          hintmask 11011000
          -73 81 vlineto
          -50 -499 -90 callsubr
          hintmask 11011100
          -296 -540 rmoveto
          269 100 hlineto
          hintmask 11011010
          -71 callsubr
          hintmask 11011100
          -30 -67 -56 -74 -44 vhcurveto
          endchar
        </CharString>
        <CharString name="onequarter">
          0 131 -75 75 115 68 211 71 callsubr
          168 108 hintmask 10101110
          110 callsubr
          -388 -262 rmoveto
          86 -84 160 198 -58 54 rlineto
          -133 247 rmoveto
          81 -205 124 314 -96 hlineto
          hintmask 10110110
          -34 -21 -21 -9 -54 -6 rrcurveto
          321 -467 rmoveto
          25 54 30 61 rlineto
          3 hlineto
          -6 -106 rlineto
          -9 vlineto
          160 hmoveto
          -52 183 -158 hlineto
          hintmask 01101110
          -109 -199 rlineto
          -59 159 vlineto
          hintmask 10101110
          -56 108 vlineto
          hintmask 01101110
          56 52 vlineto
          endchar
        </CharString>
        <CharString name="onethird">
          -12 90 51 62 45 90 199 71 callsubr
          110 172 -108 120 hintmask 11101110
          86 callgsubr
          hintmask 11110110
          -34 -21 -21 -9 -54 -6 rrcurveto
          hintmask 11101110
          -73 81 vlineto
          -50 -499 -90 callsubr
          -300 -515 -93 callsubr
          hintmask 11101101
          -25 callsubr
          endchar
        </CharString>
        <CharString name="ordfeminine">
          -39 callgsubr
        </CharString>
        <CharString name="ordfeminine.a">
          -35 callgsubr
        </CharString>
        <CharString name="ordmasculine">
          -14 callsubr
        </CharString>
        <CharString name="oslash">
          -12 132 260 132 hstem
          26 callsubr
          vstem
          380 286 rmoveto
          1 -11 1 -12 -13 vvcurveto
          -76 -24 -54 -58 -18 -15 5 10 -12 vhcurveto
          -35 81 rmoveto
          -1 10 -1 12 12 vvcurveto
          76 24 54 58 18 14 -5 -9 12 vhcurveto
          196 114 rmoveto
          -62 48 -43 -52 rlineto
          24 -41 -46 12 -48 hhcurveto
          -132 -126 -96 -166 -72 24 -59 38 -44 hvcurveto
          -44 -53 62 -48 42 51 rlineto
          -24 41 47 -13 48 hhcurveto
          132 126 96 166 73 -24 59 -39 44 hvcurveto
          endchar
        </CharString>
        <CharString name="otilde">
          -29 callsubr
          156 hstem
          26 callsubr
          vstem
          -104 callgsubr
          -100 324 -100 callgsubr
        </CharString>
        <CharString name="p">
          -155 -21 164 154 callgsubr
          384 140 -12 -20 62 callgsubr
          hintmask 10101110
          230 38 rmoveto
          -32 33 39 -18 43 hhcurveto
          109 104 98 172 hvcurveto
          hintmask 10110110
          154 -77 100 -121 -51 -51 -24 -34 -38 vhcurveto
          -4 hlineto
          hintmask 10101110
          -12 46 rlineto
          -140 -676 172 138 hlineto
          hintmask 11010110
          190 vmoveto
          48 callgsubr
        </CharString>
        <CharString name="p.sups">
          252 96 131 callsubr
          262 285 rmoveto
          -21 22 25 -12 29 hhcurveto
          73 69 65 114 101 -51 67 -81 -34 -34 -16 -22 -25 hvcurveto
          -3 hlineto
          -8 30 rlineto
          -97 -446 119 90 hlineto
          127 vmoveto
          48 callsubr
        </CharString>
        <CharString name="paragraph">
          650 -20 hstem
          38 281 51 172 vstem
          370 -80 rmoveto
          172 730 -172 hlineto
          -51 hmoveto
          -41 hlineto
          -128 -112 -54 -172 -155 112 -83 127 hvcurveto
          42 hlineto
          endchar
        </CharString>
        <CharString name="parenleft">
          -180 916 hstem
          170 142 vstem
          377 -180 rmoveto
          95 74 rlineto
          -113 117 -47 113 154 vvcurveto
          154 47 113 113 117 vhcurveto
          -95 74 rlineto
          -127 -118 -80 -154 -186 vvcurveto
          -186 80 -154 127 -118 vhcurveto
          endchar
        </CharString>
        <CharString name="parenleft.dnom">
          -94 56 callsubr
          168 -41 callgsubr
        </CharString>
        <CharString name="parenleft.numr">
          166 56 callsubr
          428 -41 callgsubr
        </CharString>
        <CharString name="parenleft.subs">
          -264 56 callsubr
          -2 -41 callgsubr
        </CharString>
        <CharString name="parenleft.sups">
          346 56 callsubr
          608 -41 callgsubr
        </CharString>
        <CharString name="parenright">
          -180 916 hstem
          288 142 vstem
          223 -180 rmoveto
          127 118 80 154 186 vvcurveto
          186 -80 154 -127 118 vhcurveto
          -95 -74 rlineto
          113 -117 47 -113 -154 vvcurveto
          -154 -47 -113 -113 -117 vhcurveto
          endchar
        </CharString>
        <CharString name="parenright.dnom">
          -94 57 callgsubr
          168 -41 callsubr
        </CharString>
        <CharString name="parenright.numr">
          166 57 callgsubr
          428 -41 callsubr
        </CharString>
        <CharString name="parenright.subs">
          -264 57 callgsubr
          -2 -41 callsubr
        </CharString>
        <CharString name="parenright.sups">
          346 57 callgsubr
          608 -41 callsubr
        </CharString>
        <CharString name="partialdiff">
          -12 138 166 130 112 138 hstem
          53 157 176 162 vstem
          274 126 rmoveto
          -33 -31 21 50 71 39 24 40 32 31 -14 -39 21 hvcurveto
          -90 -20 -42 -23 -37 hhcurveto
          -85 364 rmoveto
          29 31 30 15 38 hhcurveto
          76 22 -68 -91 hvcurveto
          -3 0 -4 -3 vvcurveto
          36 -31 -44 21 -44 hhcurveto
          -122 -92 -96 -139 -122 91 -77 111 171 122 152 230 173 -76 129 -165 -73 -60 -28 -48 -58 hvcurveto
          endchar
        </CharString>
        <CharString name="percent">
          -12 90 158 90 -18 90 158 90 hstemhm
          23 116 72 116 -54 116 72 116 hintmask 10111101
          175 308 -77 callgsubr
          -76 -372 -90 callsubr
          hintmask 11000011
          -164 -552 -77 callgsubr
          endchar
        </CharString>
        <CharString name="period">
          -12 55 callsubr
          118 rmoveto
          -12 callsubr
          endchar
        </CharString>
        <CharString name="period.dnom">
          -8 56 callgsubr
          62 -6 callsubr
        </CharString>
        <CharString name="period.numr">
          252 56 callgsubr
          322 -6 callsubr
        </CharString>
        <CharString name="period.subs">
          -178 56 callgsubr
          -108 -6 callsubr
        </CharString>
        <CharString name="period.sups">
          432 56 callgsubr
          502 -6 callsubr
        </CharString>
        <CharString name="periodcentered">
          226 55 callsubr
          356 rmoveto
          -12 callsubr
          endchar
        </CharString>
        <CharString name="perthousand">
          -12 70 118 70 142 70 118 70 hstemhm
          24 96 72 96 26 96 72 96 hintmask 11111101
          156 388 -24 callsubr
          386 56 rmoveto
          -454 -196 22 -50 474 138 rlineto
          -428 -418 -24 callsubr
          hintmask 11000011
          290 -70 -24 callsubr
          endchar
        </CharString>
        <CharString name="peseta">
          21 -21 203 106 57 104 58 106 hstem
          78 162 vstem
          240 309 rmoveto
          57 114 vlineto
          -36 -13 -31 -21 -45 hhcurveto
          219 vmoveto
          45 31 -19 -39 13 hvcurveto
          -114 58 hlineto
          338 -58 rmoveto
          -62 hlineto
          121 -23 -101 43 -118 hhcurveto
          -196 -165 hlineto
          -65 -5 rlineto
          -98 65 -366 162 203 34 vlineto
          116 104 51 112 22 hvcurveto
          62 hlineto
          endchar
        </CharString>
        <CharString name="pi">
          -12 138 240 134 hstem
          100 161 89 162 vstem
          350 176 rmoveto
          -112 40 -76 124 37 29 8 8 18 vhcurveto
          -20 126 rlineto
          -2 -9 -6 -2 -7 hhcurveto
          -28 -16 10 34 14 0 104 6 78 hvcurveto
          78 134 -516 hlineto
          -76 -6 rlineto
          -128 96 vlineto
          -102 -8 -132 -18 -132 vhcurveto
          172 -10 rlineto
          8 128 7 136 112 vvcurveto
          93 hlineto
          -74 -4 -94 -22 vvcurveto
          endchar
        </CharString>
        <CharString name="plus">
          270 120 hstem
          238 124 vstem
          238 90 rmoveto
          124 180 174 120 -174 180 -124 -180 -174 -120 174 hlineto
          endchar
        </CharString>
        <CharString name="plusminus">
          0 120 170 120 hstem
          238 124 vstem
          238 170 rmoveto
          124 120 174 120 -174 160 -124 -160 -174 -120 174 hlineto
          -174 -290 rmoveto
          42 callgsubr
          endchar
        </CharString>
        <CharString name="product">
          484 150 hstem
          14 172 228 172 vstem
          14 -120 rmoveto
          172 604 228 -604 172 754 -572 hlineto
          endchar
        </CharString>
        <CharString name="q">
          -155 -21 164 140 244 -58 callsubr
          -30 callsubr
          hintmask 11001110
          42 250 rmoveto
          -162 82 -100 127 41 47 20 30 32 vhcurveto
          -7 -71 rlineto
          -143 172 vlineto
          hintmask 11010110
          676 -134 vlineto
          hintmask 11001110
          -14 -50 rlineto
          -4 hlineto
          44 -39 -40 18 -54 hhcurveto
          -105 -104 27 callsubr
          176 2 rmoveto
          hintmask 11100110
          88 38 32 42 24 22 -6 -18 20 vhcurveto
          -184 vlineto
          -28 -19 -21 -8 -28 hhcurveto
          hintmask 11001110
          -49 -29 34 90 hvcurveto
          endchar
        </CharString>
        <CharString name="q.sups">
          252 96 29 callsubr
          125 425 rmoveto
          -107 55 -66 85 27 31 13 19 21 vhcurveto
          -5 -46 rlineto
          -93 119 446 -93 vlineto
          -9 -34 rlineto
          -3 hlineto
          30 -26 -26 12 13 callsubr
        </CharString>
        <CharString name="question">
          -12 220 -199 -21 556 138 hstemhm
          176 220 -56 164 hintmask 01101000
          208 264 rmoveto
          150 hlineto
          -10 110 156 12 130 vvcurveto
          116 -96 50 -116 -80 -69 -38 -56 -49 vhcurveto
          94 -86 rlineto
          24 29 25 18 38 hhcurveto
          30 30 -14 -36 -64 -152 -36 20 -130 hvcurveto
          hintmask 10110000
          -32 -165 78 callgsubr
        </CharString>
        <CharString name="questiondown">
          -182 138 336 220 0 -20 hstemhm
          96 164 -56 220 hintmask 10110000
          392 236 rmoveto
          -150 hlineto
          10 -110 -156 -12 -130 vvcurveto
          -116 96 -50 116 80 69 38 56 49 vhcurveto
          -94 86 rlineto
          -24 -29 -25 -18 -38 hhcurveto
          -30 -30 14 36 64 152 36 -20 130 hvcurveto
          hintmask 11001000
          32 165 79 callgsubr
        </CharString>
        <CharString name="quotedbl">
          284 400 hstem
          67 186 94 186 vstem
          108 284 24 callsubr
          318 -242 24 callsubr
          endchar
        </CharString>
        <CharString name="quotedblbase">
          -13 121 callsubr
          -233 -26 callsubr
        </CharString>
        <CharString name="quotedblleft">
          267 209 hstem
          34 115 165 115 vstem
          221 143 callgsubr
          -25 callgsubr
          237 89 72 callgsubr
          -25 callgsubr
          endchar
        </CharString>
        <CharString name="quotedblright">
          487 121 callsubr
          267 -26 callsubr
        </CharString>
        <CharString name="quoteleft">
          -8 callgsubr
        </CharString>
        <CharString name="quoteright">
          267 37 callgsubr
          267 2 callsubr
          hintmask 01100000
          -67 callgsubr
          endchar
        </CharString>
        <CharString name="quotesinglbase">
          -233 37 callgsubr
          -233 2 callsubr
          hintmask 01100000
          -67 callgsubr
          endchar
        </CharString>
        <CharString name="quotesingle">
          284 400 hstem
          207 186 vstem
          248 284 24 callsubr
          endchar
        </CharString>
        <CharString name="r">
          157 callgsubr
          hstemhm
          104 172 hintmask 10101000
          41 callsubr
          hintmask 11001000
          -10 callsubr
          hintmask 10101000
          -40 callgsubr
          hintmask 10011000
          75 callgsubr
          endchar
        </CharString>
        <CharString name="r.sups">
          260 331 -95 103 hstemhm
          203 119 hintmask 10100000
          203 260 rmoveto
          119 hlineto
          hintmask 01100000
          162 vlineto
          55 22 38 19 32 hhcurveto
          24 14 -3 -6 20 hvcurveto
          23 98 rlineto
          8 -18 -14 6 -31 hhcurveto
          -45 -45 -24 -54 -29 hvcurveto
          -3 hlineto
          -9 70 rlineto
          -98 hlineto
          endchar
        </CharString>
        <CharString name="racute">
          -20 callgsubr
          408 248 -54 callgsubr
        </CharString>
        <CharString name="radical">
          -74 164 -164 894 hstemhm
          22 586 hintmask 01100000
          212 454 rmoveto
          -190 -76 28 -78 76 30 rlineto
          hintmask 10100000
          150 -404 rlineto
          116 hlineto
          216 894 rlineto
          -112 hlineto
          -150 -640 -6 -30 -6 -30 -4 -30 rlinecurve
          -4 hlineto
          -6 30 -8 30 -8 30 rrcurveto
          endchar
        </CharString>
        <CharString name="rcaron">
          -20 callgsubr
          162 74 -92 callsubr
        </CharString>
        <CharString name="registered">
          308 54 110 43 48 47 52 54 hstem
          97 60 58 64 44 68 50 60 vstem
          299 308 rmoveto
          112 90 86 118 118 -90 86 -112 -112 -90 -86 -118 -118 90 -86 112 hvcurveto
          54 vmoveto
          -84 -58 58 92 92 58 58 84 84 58 -58 -92 -92 -58 -58 -84 hvcurveto
          -84 54 rmoveto
          64 56 24 hlineto
          28 -56 rlineto
          66 hlineto
          -40 74 rlineto
          24 12 10 20 22 vvcurveto
          44 -34 22 -48 vhcurveto
          -94 hlineto
          64 -95 rmoveto
          48 18 vlineto
          16 10 -10 -13 -12 -8 -13 -18 hvcurveto
          endchar
        </CharString>
        <CharString name="ring">
          550 62 88 54 callsubr
          550 -50 callgsubr
        </CharString>
        <CharString name="s">
          -12 75 callsubr
          hstem
          77 171 127 171 vstem
          46 64 rmoveto
          -42 64 94 -34 86 hhcurveto
          -99 callgsubr
          endchar
        </CharString>
        <CharString name="s.sups">
          252 86 174 87 hstem
          160 119 66 118 vstem
          139 300 rmoveto
          -28 41 62 -20 55 hhcurveto
          108 58 48 63 59 -59 25 -53 15 hvcurveto
          -39 11 -33 7 16 vvcurveto
          12 11 4 28 30 29 -10 -17 29 vhcurveto
          53 69 rlineto
          22 -35 -47 23 -61 hhcurveto
          -95 -61 -43 -65 -55 59 -28 51 -16 hvcurveto
          40 -12 35 -8 -16 vvcurveto
          -12 -12 -6 -34 -36 -34 12 22 -37 vhcurveto
          endchar
        </CharString>
        <CharString name="sacute">
          -12 75 callsubr
          62 174 hstem
          77 171 127 171 vstem
          46 64 rmoveto
          -42 64 94 -34 86 hhcurveto
          -99 callgsubr
          368 578 -54 callgsubr
        </CharString>
        <CharString name="scaron">
          -12 75 callsubr
          62 174 hstem
          77 171 127 171 vstem
          46 64 rmoveto
          -42 64 94 -34 86 hhcurveto
          -99 callgsubr
          122 404 -92 callsubr
        </CharString>
        <CharString name="scircumflex">
          -12 75 callsubr
          62 174 hstem
          77 171 127 171 vstem
          46 64 rmoveto
          -42 64 94 -34 86 hhcurveto
          -99 callgsubr
          20 404 -95 callsubr
          endchar
        </CharString>
        <CharString name="section">
          -92 126 -15 -21 568 126 hstemhm
          64 144 -94 154 54 154 -84 144 hintmask 01110010
          208 332 rmoveto
          19 8 16 17 13 vhcurveto
          76 -36 83 -20 -54 vvcurveto
          -20 -8 -16 -17 -13 vhcurveto
          -74 38 -85 20 53 vvcurveto
          284 292 rmoveto
          33 -42 -66 35 -82 hhcurveto
          hintmask 01101010
          -117 -71 -64 -98 -34 10 -27 17 -22 hvcurveto
          hintmask 10110100
          -48 -31 -29 -50 -46 -190 258 0 -64 vvcurveto
          -20 -14 -12 -36 -34 -38 16 34 -32 vhcurveto
          hintmask 01110010
          -98 -86 rlineto
          hintmask 10110100
          -62 46 82 -28 74 hhcurveto
          137 67 72 94 30 -8 25 -13 20 hvcurveto
          hintmask 01101010
          53 34 28 45 56 180 -268 16 56 vvcurveto
          22 15 8 29 31 40 -21 -27 31 vhcurveto
          endchar
        </CharString>
        <CharString name="semicolon">
          12 226 60 260 hstemhm
          170 260 -122 134 hintmask 01100000
          300 298 rmoveto
          78 52 58 72 71 -52 59 -78 -78 -52 -59 -71 -72 52 -58 78 hvcurveto
          -82 -516 rmoveto
          hintmask 10010000
          149 42 75 95 131 vvcurveto
          36 callgsubr
        </CharString>
        <CharString name="seven">
          21 -21 490 144 hstem
          180 172 vstem
          180 hmoveto
          172 hlineto
          13 247 19 110 158 171 rrcurveto
          106 -483 -144 300 vlineto
          -128 -163 -38 -127 -13 -200 rrcurveto
          endchar
        </CharString>
        <CharString name="seven.dnom">
          214 15 callgsubr
          hmoveto
          -35 callsubr
        </CharString>
        <CharString name="seven.numr">
          534 15 callgsubr
          320 rmoveto
          -35 callsubr
        </CharString>
        <CharString name="seven.onum">
          436 144 hstem
          180 172 vstem
          180 -80 rmoveto
          172 hlineto
          12 258 20 120 158 176 rrcurveto
          106 -483 -144 300 vlineto
          -129 -168 -37 -140 -13 -208 rrcurveto
          endchar
        </CharString>
        <CharString name="seven.subs">
          44 15 callgsubr
          -170 rmoveto
          -35 callsubr
        </CharString>
        <CharString name="seven.sups">
          654 15 callgsubr
          440 rmoveto
          -35 callsubr
        </CharString>
        <CharString name="seveneighths">
          -12 77 182 79 208 100 hstemhm
          51 272 -221 129 57 -15 callgsubr
          hintmask 1110110010000000
          102 320 rmoveto
          129 hlineto
          hintmask 0011000000000000
          5 105 14 63 73 83 rrcurveto
          63 -272 -100 vlineto
          hintmask 0010100000000000
          137 hlineto
          hintmask 1110110010000000
          -53 -77 -28 -52 -5 -85 rrcurveto
          -4 -294 -90 callsubr
          -51 callgsubr
        </CharString>
        <CharString name="six">
          -47 callgsubr
        </CharString>
        <CharString name="six.dnom">
          -12 6 callsubr
          78 -82 callsubr
        </CharString>
        <CharString name="six.numr">
          308 6 callsubr
          398 -82 callsubr
        </CharString>
        <CharString name="six.onum">
          -47 callgsubr
        </CharString>
        <CharString name="six.subs">
          -182 6 callsubr
          -92 -82 callsubr
        </CharString>
        <CharString name="six.sups">
          428 6 callsubr
          518 -82 callsubr
        </CharString>
        <CharString name="slash">
          -160 870 hstem
          64 472 vstem
          536 710 rmoveto
          -142 hlineto
          -330 -870 rlineto
          142 hlineto
          endchar
        </CharString>
        <CharString name="slash.frac">
          26 598 hstem
          12 576 vstem
          98 26 -90 callsubr
          endchar
        </CharString>
        <CharString name="space">
          endchar
        </CharString>
        <CharString name="space.frac">
          endchar
        </CharString>
        <CharString name="sterling">
          0 144 122 104 138 138 hstemhm
          131 163 -116 149 hintmask 11101000
          281 148 rmoveto
          33 34 13 27 39 vvcurveto
          6 0 6 -1 6 vhcurveto
          136 104 hlineto
          hintmask 11110000
          -160 hlineto
          -5 18 -3 17 17 vvcurveto
          47 callsubr
          -19 6 -22 8 -21 hvcurveto
          -77 -6 rlineto
          -98 vlineto
          hintmask 11101000
          109 hlineto
          1 -5 0 -6 -5 vvcurveto
          -70 -52 -50 -63 -24 vhcurveto
          163 callgsubr
        </CharString>
        <CharString name="summation">
          -120 144 466 144 hstem
          55 506 vstem
          55 -20 rmoveto
          -100 506 144 -294 4 vlineto
          156 228 -150 230 rlineto
          4 266 144 -474 -100 vlineto
          184 -278 rlineto
          endchar
        </CharString>
        <CharString name="t">
          -12 73 callsubr
          hstem
          162 172 vstem
          -91 callsubr
          endchar
        </CharString>
        <CharString name="t.sups">
          252 92 155 92 hstem
          211 120 vstem
          211 401 rmoveto
          -89 41 -60 111 44 35 9 8 27 vhcurveto
          -20 85 rlineto
          -6 -16 -19 -4 -20 hhcurveto
          -41 -22 13 46 hvcurveto
          96 123 92 -123 85 -99 vlineto
          -15 -85 -72 -4 rlineto
          -88 66 vlineto
          endchar
        </CharString>
        <CharString name="tcaron">
          -12 73 callsubr
          48 82 hstem
          162 172 51 104 vstem
          -91 callsubr
          298 182 rmoveto
          39 callsubr
          6 -226 rlineto
          endchar
        </CharString>
        <CharString name="thorn">
          -155 -21 164 154 callgsubr
          384 140 184 -20 62 callgsubr
          hintmask 10111110
          236 -38 rmoveto
          -4 76 rlineto
          -28 30 36 -22 48 hhcurveto
          106 106 98 172 154 -78 100 -120 -46 -46 -18 -32 -36 hvcurveto
          4 71 rlineto
          163 -172 -872 172 vlineto
          hintmask 11011110
          328 vmoveto
          184 vlineto
          26 24 22 10 26 hhcurveto
          50 24 -34 -82 -96 -38 -32 -40 -22 -26 6 18 -20 hvcurveto
          endchar
        </CharString>
        <CharString name="three">
          -12 138 136 120 130 111 callsubr
          hintmask 11100100
          36 78 rmoveto
          144 callsubr
          66 120 hvcurveto
          hintmask 11110000
          80 -58 50 -78 22 vhcurveto
          4 vlineto
          hintmask 11101000
          75 30 41 46 61 vvcurveto
          115 -98 64 83 callgsubr
          -20 -38 hvcurveto
          hintmask 11110000
          -44 -42 -28 -114 vhcurveto
          -120 vlineto
          hintmask 11100100
          141 35 -28 -48 -40 -44 -20 -62 -48 -54 24 36 -42 hvcurveto
          endchar
        </CharString>
        <CharString name="three.dnom">
          -12 -2 callsubr
          25 -93 callsubr
          hintmask 11101000
          -25 callsubr
          endchar
        </CharString>
        <CharString name="three.numr">
          308 -2 callsubr
          345 -93 callsubr
          hintmask 11101000
          -25 callsubr
          endchar
        </CharString>
        <CharString name="three.onum">
          -92 138 -27 -21 198 120 142 111 callsubr
          hintmask 01110010
          36 -2 rmoveto
          hintmask 10110010
          144 callsubr
          70 126 hvcurveto
          hintmask 01111000
          85 -58 48 -78 23 vhcurveto
          4 vlineto
          hintmask 01110100
          75 32 41 48 65 vvcurveto
          115 -98 68 83 callgsubr
          -24 -38 hvcurveto
          hintmask 01111000
          -50 -42 -30 -114 vhcurveto
          -120 vlineto
          hintmask 10110010
          141 35 -27 -53 -47 -44 -23 -62 -48 -54 24 36 -42 hvcurveto
          endchar
        </CharString>
        <CharString name="three.subs">
          -182 -2 callsubr
          -145 -93 callsubr
          hintmask 11101000
          -25 callsubr
          endchar
        </CharString>
        <CharString name="three.sups">
          428 -2 callsubr
          465 -93 callsubr
          hintmask 11101000
          -25 callsubr
          endchar
        </CharString>
        <CharString name="threeeighths">
          -12 77 182 79 -18 90 51 62 45 90 hstemhm
          132 172 -108 120 -28 -15 callgsubr
          hintmask 1011110000100000
          38 345 -93 callsubr
          hintmask 0011001000000000
          45 19 -10 -19 -14 -16 -8 -18 -25 -33 -70 callsubr
        </CharString>
        <CharString name="threequarters">
          0 131 -75 75 115 68 -6 90 51 62 45 90 hstemhm
          131 172 -108 120 126 108 hintmask 1001111010000000
          110 callsubr
          -363 -27 -93 callsubr
          hintmask 1001110110000000
          -25 callsubr
          -70 -311 rmoveto
          86 -84 160 198 -58 54 rlineto
          189 -147 rmoveto
          hintmask 1010111010000000
          25 54 30 61 rlineto
          3 hlineto
          -6 -106 rlineto
          -9 vlineto
          160 hmoveto
          -52 183 -158 hlineto
          hintmask 0101111010000000
          -109 -199 rlineto
          -59 159 vlineto
          hintmask 1001111010000000
          -56 108 vlineto
          hintmask 0101111010000000
          56 52 vlineto
          endchar
        </CharString>
        <CharString name="tilde">
          574 156 hstem
          118 364 vstem
          118 574 -100 callgsubr
        </CharString>
        <CharString name="trademark">
          426 96 38 116 -100 100 hstemhm
          56 110 102 96 140 96 hintmask 10111100
          268 360 rmoveto
          96 80 hlineto
          133 callsubr
          hintmask 11011100
          53 callgsubr
          hintmask 10111100
          -18 68 -30 86 rlineto
          -116 hlineto
          -212 -316 rmoveto
          110 216 72 100 -254 -100 72 hlineto
          endchar
        </CharString>
        <CharString name="triagdn">
          14 536 hstem
          18 564 vstem
          298 14 rmoveto
          4 hlineto
          280 534 rlineto
          2 -564 -2 vlineto
          endchar
        </CharString>
        <CharString name="triagup">
          14 536 hstem
          18 564 vstem
          18 14 84 callgsubr
        </CharString>
        <CharString name="two">
          0 144 368 110 callgsubr
          -128 hlineto
          -31 -48 -4 -4 -35 hvcurveto
          104 88 106 112 102 45 callgsubr
          -86 -124 -106 -169 -138 hvcurveto
          endchar
        </CharString>
        <CharString name="two.dnom">
          0 100 128 98 hstemhm
          166 269 -128 118 hintmask 10100000
          166 hmoveto
          269 100 hlineto
          hintmask 11010000
          -71 callsubr
          hintmask 10100000
          -30 -67 -56 -74 -44 vhcurveto
          endchar
        </CharString>
        <CharString name="two.numr">
          320 23 callgsubr
          320 rmoveto
          269 100 hlineto
          hintmask 11010000
          -71 callsubr
          hintmask 10100000
          -30 -67 -56 -74 -44 vhcurveto
          endchar
        </CharString>
        <CharString name="two.onum">
          0 144 314 110 callgsubr
          -98 hlineto
          -31 -48 -4 -4 -35 hvcurveto
          98 72 82 80 96 45 callgsubr
          -71 -119 -97 -174 -108 hvcurveto
          endchar
        </CharString>
        <CharString name="two.subs">
          -170 23 callgsubr
          -170 rmoveto
          269 100 hlineto
          hintmask 11010000
          -71 callsubr
          hintmask 10100000
          -30 -67 -56 -74 -44 vhcurveto
          endchar
        </CharString>
        <CharString name="two.sups">
          440 23 callgsubr
          440 rmoveto
          269 100 hlineto
          hintmask 11010000
          -71 callsubr
          hintmask 10100000
          -30 -67 -56 -74 -44 vhcurveto
          endchar
        </CharString>
        <CharString name="twothirds">
          -12 90 51 62 45 90 -6 100 128 98 hstemhm
          183 118 -9 19 71 172 -108 120 hintmask 1001101100000000
          42 320 rmoveto
          269 100 hlineto
          hintmask 1001110100000000
          -71 callsubr
          hintmask 1001101100000000
          -30 -67 -56 -74 -44 vhcurveto
          56 -357 -90 callsubr
          -300 -515 rmoveto
          -35 52 48 -2 40 hhcurveto
          74 64 44 58 36 -16 26 -49 14 hvcurveto
          hintmask 1110101100000000
          41 14 12 20 36 vvcurveto
          53 -56 37 -67 -58 -49 -17 -23 -32 vhcurveto
          47 -72 rlineto
          10 20 21 12 22 hhcurveto
          20 12 -8 -12 -22 -21 -3 -31 hvcurveto
          -62 vlineto
          hintmask 1101101010000000
          -25 callsubr
          endchar
        </CharString>
        <CharString name="u">
          -12 135 callgsubr
          132 172 hintmask 01111000
          -45 callgsubr
          hintmask 10111000
          -322 vlineto
          -104 callsubr
          hintmask 01111000
          30 callsubr
          endchar
        </CharString>
        <CharString name="u.sups">
          252 100 -92 331 hstemhm
          139 119 83 120 hintmask 01110000
          461 591 rmoveto
          -120 hlineto
          hintmask 10110000
          -212 vlineto
          -23 -16 -12 -4 -19 hhcurveto
          -28 -8 15 35 hvcurveto
          189 -119 -204 vlineto
          -81 31 -54 75 46 34 20 31 28 vhcurveto
          2 hlineto
          9 -43 rlineto
          97 hlineto
          endchar
        </CharString>
        <CharString name="uacute">
          -56 callgsubr
          94 174 -20 callsubr
          hintmask 01111100
          -45 callgsubr
          hintmask 10111100
          -322 vlineto
          -104 callsubr
          hintmask 01111100
          30 callsubr
          -62 5 callgsubr
          endchar
        </CharString>
        <CharString name="ubreve">
          -56 callgsubr
          94 92 63 callsubr
          -86 94 120 94 -90 172 hintmask 01111001
          -45 callgsubr
          hintmask 10111001
          -322 vlineto
          -104 callsubr
          hintmask 01110101
          30 callsubr
          -236 574 rmoveto
          hintmask 01110110
          103 49 76 88 115 callsubr
          -42 -5 -18 -30 -37 hhcurveto
          -37 -18 30 42 -5 hvcurveto
          -94 hlineto
          hintmask 01110101
          -88 2 49 -76 103 hhcurveto
          endchar
        </CharString>
        <CharString name="ucircumflex">
          -56 callgsubr
          94 174 -20 callsubr
          hintmask 01111100
          -45 callgsubr
          hintmask 10111100
          -322 vlineto
          -104 callsubr
          hintmask 01111100
          30 callsubr
          -410 574 -95 callsubr
          endchar
        </CharString>
        <CharString name="udieresis">
          -56 callgsubr
          84 176 63 callsubr
          -134 89 callsubr
          -138 172 hintmask 01111001
          -45 callgsubr
          hintmask 10111001
          -322 vlineto
          -104 callsubr
          hintmask 01110101
          30 callsubr
          -350 564 rmoveto
          -92 callgsubr
          hintmask 01111010
          228 hmoveto
          -92 callgsubr
          endchar
        </CharString>
        <CharString name="ugrave">
          -56 callgsubr
          94 174 -20 callsubr
          hintmask 01111100
          -45 callgsubr
          hintmask 10111100
          -322 vlineto
          -104 callsubr
          hintmask 01111100
          30 callsubr
          -272 14 callgsubr
        </CharString>
        <CharString name="uhorn">
          -12 135 callgsubr
          132 172 -32 132 hintmask 01110100
          484 608 -51 callsubr
          hintmask 10111000
          -60 -322 hlineto
          -104 callsubr
          hintmask 01111000
          -19 callsubr
          448 hlineto
          hintmask 01110100
          58 18 42 40 66 -62 callgsubr
        </CharString>
        <CharString name="uhungarumlaut">
          -56 callgsubr
          94 154 -20 callsubr
          hintmask 01111100
          -45 callgsubr
          hintmask 10111100
          -322 vlineto
          -104 callsubr
          hintmask 01111100
          30 callsubr
          -372 574 -23 callgsubr
        </CharString>
        <CharString name="umacron">
          -56 callgsubr
          108 108 -20 callsubr
          hintmask 01111100
          -45 callgsubr
          hintmask 10111100
          -322 vlineto
          -104 callsubr
          hintmask 01111100
          30 callsubr
          -380 588 -29 callgsubr
          endchar
        </CharString>
        <CharString name="underscore">
          -174 126 hstem
          60 480 vstem
          60 -48 rmoveto
          -126 480 126 vlineto
          endchar
        </CharString>
        <CharString name="uni00470303">
          54 callgsubr
          38 146 hstem
          40 177 182 153 vstem
          -101 callsubr
          354 380 rmoveto
          54 50 44 102 12 hvcurveto
          -86 hlineto
          -89 callgsubr
          endchar
        </CharString>
        <CharString name="uni00670303">
          -38 callsubr
          62 156 -100 callsubr
          -162 314 -100 callgsubr
        </CharString>
        <CharString name="uni00670303.a">
          -47 callsubr
          82 156 hstemhm
          42 174 148 172 hintmask 11001111
          -71 callgsubr
          hintmask 11010111
          -1 callsubr
          -38 -54 10 24 -46 hvcurveto
          168 174 rmoveto
          -46 -34 37 71 hvcurveto
          hintmask 11100111
          75 42 35 38 26 22 -6 -18 20 vhcurveto
          -156 vlineto
          hintmask 11001111
          -30 -20 -22 -8 -26 hhcurveto
          -168 420 -100 callgsubr
        </CharString>
        <CharString name="uni00A0">
          endchar
        </CharString>
        <CharString name="uni00AD">
          9 callsubr
        </CharString>
        <CharString name="uni00AD.a">
          53 callsubr
        </CharString>
        <CharString name="uni00B5">
          -12 138 -132 140 63 callsubr
          132 162 hintmask 01110000
          56 -200 rmoveto
          174 hlineto
          -8 72 -2 65 -2 71 rrcurveto
          -12 14 22 -2 18 hhcurveto
          44 38 30 52 22 hvcurveto
          4 hlineto
          hintmask 10110000
          -56 21 43 -32 70 hhcurveto
          37 29 6 8 18 hvcurveto
          -20 126 rlineto
          -2 -8 -4 0 -6 hhcurveto
          -22 -16 10 34 70 6 150 6 110 hvcurveto
          -174 hlineto
          hintmask 01110000
          -302 vlineto
          -43 -21 -23 -21 -34 hhcurveto
          -34 -20 16 64 hvcurveto
          286 -172 vlineto
          endchar
        </CharString>
        <CharString name="uni0122">
          -234 66 156 148 102 140 136 148 hstemhm
          40 177 87 122 -27 153 hintmask 01111010
          -101 callsubr
          hintmask 11111100
          256 -360 -99 callsubr
        </CharString>
        <CharString name="uni0123">
          -38 callsubr
          162 66 -23 callsubr
          7 122 11 -96 callgsubr
          hintmask 1111010001100000
          58 286 -13 callgsubr
        </CharString>
        <CharString name="uni0123.a">
          -47 callsubr
          182 66 hstemhm
          42 174 2 122 24 172 -94 callgsubr
          hintmask 1100110110000000
          52 392 -13 callgsubr
        </CharString>
        <CharString name="uni012C">
          124 callsubr
          124 3 callgsubr
          -88 callgsubr
          234 556 rmoveto
          -61 callgsubr
        </CharString>
        <CharString name="uni012D">
          151 callsubr
          92 hstemhm
          190 94 -20 172 -32 94 hintmask 11101000
          -66 callgsubr
          hintmask 11110100
          270 74 -76 callsubr
        </CharString>
        <CharString name="uni0136">
          137 callsubr
          650 -20 hstem
          57 173 58 122 8 callgsubr
          223 -690 -99 callsubr
        </CharString>
        <CharString name="uni0137">
          137 callsubr
          500 -20 216 -20 hstem
          64 172 54 122 7 callsubr
          218 -736 -99 callsubr
        </CharString>
        <CharString name="uni013B">
          -234 66 168 107 callsubr
          hstemhm
          96 172 28 122 hintmask 11110000
          -28 callgsubr
          hintmask 11111000
          192 -690 -99 callsubr
        </CharString>
        <CharString name="uni013C">
          -234 66 156 85 callgsubr
          -34 122 hintmask 11110000
          54 562 rmoveto
          -88 callsubr
          hintmask 11101000
          266 -736 -99 callsubr
        </CharString>
        <CharString name="uni0145">
          137 callsubr
          650 -20 hstemhm
          60 164 46 122 -16 164 hintmask 11110100
          -95 callgsubr
          hintmask 11111000
          202 -690 -99 callsubr
        </CharString>
        <CharString name="uni0146">
          -234 66 189 18 callsubr
          80 callgsubr
          38 122 -22 172 hintmask 11011010
          64 hmoveto
          172 hlineto
          hintmask 11101010
          -86 callsubr
          hintmask 11011100
          59 callsubr
          202 -540 -99 callsubr
        </CharString>
        <CharString name="uni014E">
          -70 callgsubr
          38 124 hstem
          -26 callgsubr
          vstem
          -107 callsubr
          564 vmoveto
          -61 callgsubr
        </CharString>
        <CharString name="uni014F">
          -29 callsubr
          92 -21 callsubr
          -72 94 120 94 -72 176 hintmask 11110010
          -104 callgsubr
          hintmask 11101100
          82 324 -76 callsubr
        </CharString>
        <CharString name="uni0156">
          -234 66 189 71 callgsubr
          80 callsubr
          60 122 -20 168 hintmask 11111010
          230 514 -73 callsubr
          hintmask 11111100
          20 -100 rmoveto
          30 -8 10 -10 -16 vvcurveto
          -22 -34 -8 -46 -4 vhcurveto
          12 -66 rlineto
          102 4 88 32 72 vvcurveto
          52 -32 26 -98 8 vhcurveto
          endchar
        </CharString>
        <CharString name="uni0157">
          -234 66 189 40 callgsubr
          hstemhm
          104 172 -102 122 hintmask 11010100
          41 callsubr
          hintmask 11100100
          -10 callsubr
          hintmask 11010100
          -40 callgsubr
          hintmask 11001100
          75 callgsubr
          hintmask 11010010
          62 -540 -99 callsubr
        </CharString>
        <CharString name="uni015E">
          -224 66 170 -21 523 148 hstemhm
          68 174 28 122 -12 140 callsubr
          344 405 rmoveto
          -65 24 -37 10 31 vvcurveto
          29 26 15 48 52 37 -16 -31 47 vhcurveto
          86 108 rlineto
          59 -63 -82 28 -77 hhcurveto
          -148 -100 -91 -111 -94 62 -59 75 -28 hvcurveto
          81 -34 rlineto
          61 -22 33 -10 -31 vvcurveto
          -29 -21 -17 -59 -51 -58 26 37 -49 vhcurveto
          -98 -118 rlineto
          hintmask 11111000
          59 -51 74 -30 71 -9 -34 -67 rcurveline
          -81 callgsubr
          13 31 rlineto
          hintmask 11110100
          135 18 74 89 98 vvcurveto
          90 -50 56 -87 32 vhcurveto
          endchar
        </CharString>
        <CharString name="uni015F">
          -224 66 148 124 -103 -21 396 126 hstemhm
          77 171 32 122 -27 171 hintmask 10111100
          538 442 rmoveto
          33 -53 -74 37 -94 hhcurveto
          -146 -94 -64 -98 hvcurveto
          hintmask 11011010
          -82 93 -42 82 -24 vhcurveto
          65 -19 58 -13 -26 vvcurveto
          -20 -22 -10 -59 -58 -56 22 34 -58 vhcurveto
          -76 -106 rlineto
          hintmask 10111100
          56 -37 79 -30 76 -7 -33 -66 rcurveline
          -81 callgsubr
          13 32 rlineto
          hintmask 10111010
          124 17 65 65 80 vvcurveto
          90 -94 37 -85 23 vhcurveto
          -64 17 -55 11 26 vvcurveto
          20 21 8 52 48 47 -20 -26 46 vhcurveto
          endchar
        </CharString>
        <CharString name="uni0162">
          -224 66 179 152 callsubr
          153 callgsubr
          -116 122 hintmask 11110000
          386 hmoveto
          506 187 144 -546 -144 187 -506 38 vlineto
          -38 -76 rlineto
          hintmask 11101000
          -81 callgsubr
          hintmask 11110000
          16 40 rlineto
          endchar
        </CharString>
        <CharString name="uni0163">
          -224 66 147 133 -112 -21 26 -21 372 134 hstemhm
          162 172 8 122 hintmask 10101100
          418 -11 rmoveto
          53 3 44 12 37 10 rrcurveto
          hintmask 11001100
          -30 -15 callsubr
          -9 -27 -30 -7 -34 hhcurveto
          -64 -33 22 71 hvcurveto
          151 198 134 -198 130 -142 vlineto
          -22 -130 -128 -6 rlineto
          -128 120 -154 vlineto
          hintmask 10011100
          -114 44 -83 115 -21 vhcurveto
          hintmask 10101110
          -35 -70 rlineto
          -81 callgsubr
          endchar
        </CharString>
        <CharString name="uni0180">
          -12 154 callgsubr
          33 -21 352 140 58 76.5 -76.5 80 -80 146 62 callgsubr
          hintmask 0011001110000000
          236 316 rmoveto
          26 24 21 10 27 hhcurveto
          49 25 -31 -75 hvcurveto
          hintmask 1001001110000000
          -89 -36 -29 -42 -23 -24 6 18 -21 vhcurveto
          362 vmoveto
          36 170 vlineto
          hintmask 0011010110000000
          80 -170 vlineto
          hintmask 0011001110000000
          66 -172 vlineto
          hintmask 0011100110000000
          -67 vlineto
          -64 -5 rlineto
          hintmask 0011001110000000
          -74 64 -550 134 vlineto
          hintmask 0101001110000000
          111 callgsubr
          94 167 147 -78 96 -121 -45 -46 -18 -32 -36 hvcurveto
          endchar
        </CharString>
        <CharString name="uni018F">
          -12 146 122 124 136 146 hstem
          56 176 160 172 vstem
          390 256 rmoveto
          -81 -11 -31 -41 -38 hhcurveto
          -42 -30 38 84 -6 hvcurveto
          -36 216 rmoveto
          22 24 29 22 43 hhcurveto
          58 33 -45 -91 9 hvcurveto
          -332 hlineto
          -2 -20 -2 -20 -18 vvcurveto
          -214 104 -120 150 150 104 124 214 214 -104 122 -146 -86 -60 -30 -42 -46 vhcurveto
          endchar
        </CharString>
        <CharString name="uni0192">
          -96 134 254 124 110 136 -18 -20 hstemhm
          45 511 -424 362 hintmask 11011000
          556 644 rmoveto
          hintmask 11101000
          10 -22 -51 8 -26 hhcurveto
          hintmask 11100100
          -147 -55 -57 -151 -25 hvcurveto
          -4 -38 rlineto
          -18 hlineto
          -76 -6 rlineto
          -118 79 vlineto
          -13 -118 -17 -118 -15 -16 -48 -2 rlinecurve
          -17 1 -18 2 -17 5 -21 -127 rcurveline
          16 -8 38 -6 47 -1 rrcurveto
          152 41 100 118 15 hvcurveto
          21 170 rlineto
          119 124 -104 hlineto
          6 52 rlineto
          38 9 22 20 45 hhcurveto
          22 17 -6 -4 14 hvcurveto
          endchar
        </CharString>
        <CharString name="uni01CD">
          21 -73 callgsubr
          50 124 hstem
          0 600 vstem
          384 47 callgsubr
          23 -429 -106 callsubr
        </CharString>
        <CharString name="uni01CE">
          -42 callgsubr
          174 -19 callgsubr
          hintmask 01111110
          52 callgsubr
          hintmask 10111110
          -84 callgsubr
          hintmask 01111110
          -105 callgsubr
          hintmask 10111110
          -102 callgsubr
          16 418 -92 callsubr
        </CharString>
        <CharString name="uni01CE.a">
          -83 callgsubr
          82 174 -30 callsubr
          hintmask 10100111
          -107 callgsubr
          hintmask 01010111
          -78 callsubr
          hintmask 01001111
          -83 callsubr
          hintmask 10100111
          -53 callsubr
          hintmask 01001111
          202 324 -92 callsubr
        </CharString>
        <CharString name="uni01CF">
          124 callsubr
          124 3 callgsubr
          -88 callgsubr
          284 680 -91 callgsubr
        </CharString>
        <CharString name="uni01D0">
          151 callsubr
          174 hstem
          264 172 vstem
          -66 callgsubr
          198 74 -92 callsubr
        </CharString>
        <CharString name="uni01D1">
          -70 callgsubr
          38 124 hstem
          -26 callgsubr
          vstem
          -107 callsubr
          50 688 -91 callgsubr
        </CharString>
        <CharString name="uni01D2">
          -29 callsubr
          174 hstem
          26 callsubr
          vstem
          -104 callgsubr
          10 324 -92 callsubr
        </CharString>
        <CharString name="uni01D3">
          -31 callsubr
          70 124 hstem
          -9 callgsubr
          vstem
          -103 callgsubr
          292 174 -91 callgsubr
        </CharString>
        <CharString name="uni01D4">
          -56 callgsubr
          94 174 -20 callsubr
          hintmask 01111100
          -45 callgsubr
          hintmask 10111100
          -322 vlineto
          -104 callsubr
          hintmask 01111100
          30 callsubr
          -308 574 -92 callsubr
        </CharString>
        <CharString name="uni01D5">
          -31 callsubr
          64 136 46 78 80 callsubr
          -102 161 callgsubr
          -96 166 hintmask 1111100010000000
          -103 callgsubr
          hintmask 1111001000000000
          94 226 rmoveto
          296 78 -296 hlineto
          hintmask 1111100010000000
          44 -260 rmoveto
          hintmask 1111010010000000
          40 28 30 38 38 -28 30 -40 hvcurveto
          hintmask 1111100010000000
          -40 -28 -30 -38 -38 28 -30 40 hvcurveto
          142 callgsubr
          hvcurveto
          hintmask 1111100100000000
          -40 -28 -30 -38 hvcurveto
          hintmask 1111100010000000
          -38 28 -30 40 vhcurveto
          endchar
        </CharString>
        <CharString name="uni01D6">
          -56 callgsubr
          84 136 58 78 63 callsubr
          -104 161 callsubr
          -108 172 hintmask 0111110001000000
          -45 callgsubr
          hintmask 1011110001000000
          -322 vlineto
          -104 callsubr
          hintmask 0111101001000000
          30 callsubr
          -340 564 rmoveto
          -97 callsubr
          hintmask 0111110010000000
          208 hmoveto
          -97 callsubr
          hintmask 0111100100000000
          122 callsubr
        </CharString>
        <CharString name="uni01D7">
          -31 callsubr
          64 136 30 124 80 callsubr
          -102 50 callgsubr
          -96 166 hintmask 11011001
          -103 callgsubr
          158 210 rmoveto
          136 hlineto
          120 -15 callsubr
          -178 hlineto
          hintmask 11111001
          -98 -290 -2 callgsubr
          endchar
        </CharString>
        <CharString name="uni01D8">
          -72 callsubr
          hintmask 0111101010000000
          30 callsubr
          -310 744 rmoveto
          108 hlineto
          120 114 51 callsubr
          -114 77 callsubr
          hintmask 0111110100000000
          64 callsubr
        </CharString>
        <CharString name="uni01D9">
          -31 callsubr
          64 136 30 124 80 callsubr
          -102 50 callgsubr
          -96 166 hintmask 11011001
          -103 callgsubr
          hintmask 11111001
          138 44 -2 callgsubr
          hintmask 11011001
          -54 290 -91 callgsubr
        </CharString>
</ttFont>
